<?xml version="1.0" encoding="UTF-8"?>
<svg width="182px" height="168px" viewBox="0 0 182 168" version="1.1" xmlns="http://www.w3.org/2000/svg" xmlns:xlink="http://www.w3.org/1999/xlink">
    <title>flecha-punteada-rizada</title>
    <g id="Page-1" stroke="none" stroke-width="1" fill="none" fill-rule="evenodd">
        <g id="Desktop" transform="translate(-632.000000, -5163.000000)" fill="#FFFFFF" fill-rule="nonzero">
            <g id="flecha-punteada-rizada" transform="translate(632.741832, 5163.717264)">
                <path d="M8.7500182,151.86998 C7.7941985,150.645519 6.20116566,149.727548 4.92673939,148.504087 C3.65231312,147.280626 2.69649342,145.444684 1.74067372,143.914233 C1.10346058,142.996262 -0.489572257,143.608742 0.147640878,144.526713 C1.42206715,147.586116 3.65231312,153.093941 7.47559193,153.400431 C8.7500182,153.705921 9.38723133,152.78795 8.7500182,151.86998 Z" id="Path"></path>
                <path d="M30.9808121,163.898794 C29.1939704,162.725618 27.1093218,162.432205 25.0246731,161.845377 C22.6422175,160.965136 20.2597618,160.084895 18.4729201,158.617826 C17.8773062,158.324891 17.2816923,158.911719 17.5794993,159.498067 C20.5575688,162.725618 25.620287,166.246583 30.3851982,166.539997 C31.5764261,166.246104 31.874233,164.486101 30.9808121,163.898794 Z" id="Path"></path>
                <path d="M49.3615541,151.837835 C47.8628245,153.403103 46.6638408,155.280299 44.8653653,156.532104 C43.0668898,157.78442 41.2684143,158.097372 39.1701928,158.409812 C37.9712091,158.723274 38.570701,159.975079 39.4699387,160.288542 C44.5656194,160.913933 49.3615541,158.409812 51.4597756,153.715543 C51.7595215,152.151298 50.2607919,150.586541 49.3615541,151.837835 Z" id="Path"></path>
                <path d="M52.3911502,134.116176 C52.1275809,133.820909 51.6004422,133.820909 51.0733035,134.116176 C50.0190262,135.299659 50.2825956,136.777925 50.2825956,137.961408 C50.2825956,140.031175 50.0190262,141.805674 49.2283182,143.580174 C48.9647489,144.763657 50.2825956,145.354674 50.8097342,144.467424 C51.6004422,142.692924 52.1275809,140.918425 52.3911502,139.143925 C53.1818582,137.665175 53.7089968,135.299659 52.3911502,134.116176 Z" id="Path"></path>
                <path d="M46.4890995,126.564708 C44.8320311,125.680554 43.4511408,124.206964 42.0702505,123.028092 C40.6893602,121.55402 39.584648,120.08043 37.9275796,118.90204 C36.8228674,118.312122 35.7181551,119.491957 36.2705112,120.670348 C37.3752235,122.438656 39.0322918,123.912246 40.6893602,125.386317 C42.0702505,126.564708 43.7273189,127.74358 45.3843872,128.627252 C46.7648262,129.216688 47.8699898,127.448862 46.4890995,126.564708 Z" id="Path"></path>
                <path d="M26.678447,117.201536 C24.6801854,117.201536 22.9673897,117.497055 21.254594,118.385062 C19.8272643,119.27307 17.8290026,121.049084 17.8290026,122.826066 C17.8290026,123.714073 18.9708664,124.602081 19.8272643,124.009592 C20.9691281,123.121585 21.8255259,121.937091 22.6819237,121.049084 C23.8237875,120.161077 25.2511173,119.569556 26.3929811,119.569556 C28.1057767,119.569556 28.3907762,117.497055 26.678447,117.201536 Z" id="Path"></path>
                <path d="M27.1829966,137.686081 C25.9830694,135.900399 25.9830694,133.519489 26.583033,131.733806 C26.8830148,130.840965 25.3831058,130.245251 25.083124,131.138093 C24.1831787,133.519003 23.5832151,135.602299 24.1831787,137.983209 C24.7831422,140.066019 26.2830512,143.042642 28.3829237,143.638356 C29.2828691,143.935484 30.1828145,143.042642 29.8828327,142.149801 C29.5828509,140.364605 28.082942,139.173664 27.1829966,137.686081 Z" id="Path"></path>
                <path d="M46.7264223,149.004032 C45.5703916,148.415479 44.1253533,148.709996 42.680315,148.12048 C40.946269,147.531927 39.5012307,146.353377 38.0561924,145.175789 C37.1891694,144.292237 36.0331387,145.469825 36.9001617,146.353377 C38.9232154,148.709515 43.2583303,152.833238 46.7264223,151.65565 C47.8819807,151.066135 47.8819807,149.299031 46.7264223,149.004032 Z" id="Path"></path>
                <path d="M74.6610332,142.812022 C70.9756378,145.332009 67.2902424,147.852511 63.321355,149.426988 C62.1873872,150.0575 62.4708792,151.946976 63.888339,151.632492 C68.4242102,150.371984 73.5270654,149.426988 76.361985,144.702012 C77.2129241,143.757017 75.7954643,142.18254 74.6610332,142.812022 Z" id="Path"></path>
                <path d="M85.6742986,124.427892 C85.3829173,123.252913 83.926011,123.252913 83.3432485,123.840642 C81.8863422,125.015622 81.3035796,127.660405 80.1380546,129.423594 C78.9725295,131.186784 77.5156232,132.949973 76.0587169,134.713162 C75.1845731,135.594756 76.6414794,137.064081 77.5156232,136.182966 C79.5552921,134.419777 81.3035796,132.656588 83.0518672,130.893399 C84.5087735,129.13021 86.256585,126.779291 85.6742986,124.427892 Z" id="Path"></path>
                <path d="M87.5641914,99.678683 C86.942152,98.8131863 85.0760335,99.1012138 85.3870533,100.255209 C85.698073,104.871664 87.5641914,109.199148 87.5641914,113.52616 C87.5641914,114.391657 88.8082704,114.391657 88.8082704,113.52616 C89.1192901,108.910649 90.3628609,103.717197 87.5641914,99.678683 Z" id="Path"></path>
                <path d="M83.9841047,90.1421628 C83.1016897,88.4091742 82.2192747,86.6761856 80.748583,85.2320284 C79.2778914,83.4995117 77.8071997,81.1888602 75.7482314,80.6111973 C74.8658164,80.3223658 73.6892631,81.1888602 74.2775397,82.0553545 C74.8658164,83.7883431 76.6306464,84.9436689 77.8071997,86.0985227 C79.2778914,87.5431518 81.0427214,89.2756685 82.2192747,91.0086571 C83.1016897,92.1644549 84.5723813,91.2979605 83.9841047,90.1421628 Z" id="Path"></path>
                <path d="M64.1398695,72.2777168 C62.3750789,70.5625407 60.3161564,69.7049526 57.9631022,68.8473646 C55.3159163,68.2756392 51.786335,67.7039138 49.4332808,68.5615019 C47.9626219,69.1332273 47.9626219,70.8484033 49.4332808,71.4201287 C53.8452574,73.1353048 58.8454976,70.8484033 62.9633424,73.9928928 C63.8452571,74.5646182 64.7281331,73.1353048 64.1398695,72.2777168 Z" id="Path"></path>
                <path d="M45.4699259,78.7913987 C41.2565055,82.1623145 34.0334991,89.746875 38.8488367,95.0846174 C39.7517125,95.9273463 41.2565055,95.365068 41.5574641,94.5223391 C42.1593813,92.2750619 41.5574641,90.0273257 42.1593813,88.0614171 C43.0622571,85.2518616 45.1689673,82.7241338 46.9747189,80.4768566 C47.8775947,79.0727673 46.3732934,77.9491287 45.4699259,78.7913987 Z" id="Path"></path>
                <path d="M52.8428202,109.060154 C51.1229116,107.530743 49.4030029,106.308115 47.6830942,104.779204 C45.9631856,102.944511 44.8165798,100.804536 43.669974,98.663561 C43.3833226,97.7462146 41.9500654,98.3582785 42.2367168,99.275625 C43.3833226,104.16764 46.249837,111.506911 51.9828659,111.200629 C52.8428202,111.200129 53.7027746,109.671718 52.8428202,109.060154 Z" id="Path"></path>
                <path d="M73.2441069,116.042517 C69.7364838,115.140307 65.9365588,115.741289 63.0135395,113.334905 C62.4289357,112.733924 61.5520299,113.636133 62.1366338,114.238098 C65.059653,117.545216 69.4441819,118.749145 73.5364088,117.846936 C74.1210126,117.846936 74.1210126,116.343253 73.2441069,116.042517 Z" id="Path"></path>
                <path d="M99.2458046,120.321251 C95.4222256,117.7876 89.2451943,118.421013 84.8338529,119.053908 C83.6573671,119.053908 83.6573671,120.954146 84.8338529,121.27137 C87.1868246,121.587559 89.8339178,121.587559 92.1868895,122.221489 C94.2457398,122.537678 96.30459,123.487797 98.3634402,123.487797 C100.128169,123.171608 100.42181,120.954146 99.2458046,120.321251 Z" id="Path"></path>
                <path d="M121.974203,110.034804 C119.578269,110.965699 118.08081,112.517189 115.984368,114.068173 C113.887926,115.930976 111.791973,117.171661 109.395549,118.412347 C108.197582,119.03345 109.096058,121.20503 110.294025,120.894732 C112.689959,120.273629 114.486909,119.032943 116.583352,117.792258 C118.979286,116.24026 121.375709,114.688769 123.471662,112.517189 C124.369648,111.586295 123.471173,109.413701 121.974203,110.034804 Z" id="Path"></path>
                <path d="M134.183487,88.0129238 C133.909864,86.8436763 132.268123,86.8436763 131.9945,88.0129238 C131.173629,91.2260867 130.352759,94.1489667 128.437395,96.7782219 C127.890148,97.6547995 128.711019,98.531377 129.531889,97.9465146 C132.268123,95.3172593 134.730287,92.3958116 134.183487,88.0129238 Z" id="Path"></path>
                <path d="M133.404754,63.0272722 C132.594895,61.8578986 130.975177,62.7349288 131.24513,63.9043023 C132.324501,67.7047664 132.594895,71.7975738 132.864848,75.5980378 C132.864848,76.7674114 134.754519,76.7674114 134.754519,75.5980378 C135.294866,71.5052304 135.834331,66.8277362 133.404754,63.0272722 Z" id="Path"></path>
                <path d="M125.281893,39.6085209 C124.412037,38.4646035 122.962277,39.8945003 123.542181,41.0384177 C125.281893,45.0421287 127.891462,48.7598603 129.921127,52.7635713 C130.211079,53.6215093 131.660839,53.0495506 131.370887,52.1916125 C130.211079,47.6159429 128.470892,43.0402732 125.281893,39.6085209 Z" id="Path"></path>
                <path d="M110.596253,31.6628108 C107.908911,28.9987269 102.83331,25.1506058 98.6530016,26.6306524 C97.4586277,26.9266617 97.4586277,28.7027176 98.6530016,28.9987269 C100.444562,29.5907456 102.236123,29.2947362 104.027684,29.8867549 C105.819245,30.4787735 107.610806,31.6628108 109.103773,33.1428574 C109.999554,33.734876 111.193928,32.5503551 110.596253,31.6628108 Z" id="Path"></path>
                <path d="M90.5388751,30.3541271 C87.9550276,30.3541271 85.6582743,30.923511 83.9357093,32.9163544 C82.5002385,34.6245059 80.2034851,38.3255007 81.638956,40.6030361 C82.2131443,41.7418037 83.6486151,41.4571118 84.5098976,40.6030361 C85.084086,39.7489603 85.084086,39.1795765 85.084086,38.3255007 C85.084086,37.471425 85.3711801,36.3326573 85.9453685,35.4785816 C86.806651,33.7704301 88.529216,31.7775867 90.5388751,31.4928948 C91.3996885,31.49336 91.3996885,30.3541271 90.5388751,30.3541271 Z" id="Path"></path>
                <path d="M95.5261445,61.3489025 C94.1387588,59.2496983 91.9189417,57.7502667 90.5311026,55.9509487 C88.8666932,53.8517445 87.7567846,51.4526539 86.6468761,49.0535634 C86.0919218,47.8540181 84.427059,48.753677 84.7045361,49.9532223 C85.8144447,54.7514035 89.1441703,61.9486752 93.8612816,63.4481068 C94.9711902,63.7479931 96.0806453,62.2485615 95.5261445,61.3489025 Z" id="Path"></path>
                <path d="M119.162529,73.2489663 C116.841931,72.0031825 114.521334,71.6917365 111.910661,70.7573987 C108.429291,69.8230608 105.528544,67.9543851 102.917871,65.4628175 C101.758047,64.2170337 100.017124,66.0857094 101.177423,67.3314932 C105.238469,72.0031825 112.490337,76.0519799 118.581906,76.0519799 C119.742205,76.051471 120.322828,73.8718582 119.162529,73.2489663 Z" id="Path"></path>
                <path d="M143.632339,53.4896929 C142.154471,54.9737289 141.858898,57.0513793 141.267751,58.8322226 C140.381031,61.2066802 139.198737,63.877945 137.720386,65.9555955 C136.538575,67.1428243 138.312016,68.9236675 139.49431,67.7364387 C141.267751,65.9555955 142.745135,63.877945 143.927912,61.8002946 C145.110689,59.7226442 146.588073,57.0513793 146.2925,54.6769217 C145.99741,53.4896929 144.519059,52.5992713 143.632339,53.4896929 Z" id="Path"></path>
                <path d="M151.51272,32.8584885 C147.744015,36.2617279 146.584413,43.3775922 146.874313,48.3277586 C146.874313,49.8746856 148.903616,49.8746856 149.193517,48.3277586 C149.482943,46.1620608 150.063218,43.6869776 150.643019,41.5212798 C151.51272,39.0461965 153.252123,36.8804987 153.831923,34.4054155 C153.831923,32.8584885 152.381948,31.9298267 151.51272,32.8584885 Z" id="Path"></path>
                <path d="M164.216699,16.4052755 C162.337225,16.0886842 160.770998,17.6716407 159.517503,18.6214147 C157.951275,19.8877799 157.011539,21.7873277 156.385047,23.3702843 C155.758556,24.9532408 157.951787,26.219606 158.577766,24.6366495 C159.517503,23.3702843 160.144506,22.103919 161.396977,20.8375538 C162.649959,19.8877799 164.529433,19.5711886 165.156436,17.988232 C165.46917,17.6716407 165.156436,16.7218668 164.216699,16.4052755 Z" id="Path"></path>
                <path d="M179.703909,10.2710647 C179.101923,7.49510124 178.198943,4.44154148 176.994969,1.66557805 C176.693976,0.832789027 175.790996,9.09494702e-13 174.888016,9.09494702e-13 C168.868149,0.277596342 163.450269,1.9431744 158.333382,4.99673416 C156.527422,6.10711953 158.032881,8.60548661 160.139342,7.77269758 C164.353249,5.55192685 168.567647,4.44154148 173.082056,4.44154148 C173.684042,6.38471587 174.286029,8.32789027 174.888016,10.2710647 C175.490494,12.4918354 175.189009,14.7126061 176.693976,16.3781842 C177.596956,17.4885696 179.101923,16.9333769 179.703909,16.1005879 C181.209368,14.4350098 180.305896,11.9361891 179.703909,10.2710647 Z" id="Path"></path>
            </g>
        </g>
    </g>
</svg>