<?xml version="1.0" encoding="UTF-8"?>
<svg width="313px" height="289px" viewBox="0 0 313 289" version="1.1" xmlns="http://www.w3.org/2000/svg" xmlns:xlink="http://www.w3.org/1999/xlink">
    <title>flecha-punteada-rizada</title>
    <g id="Page-1" stroke="none" stroke-width="1" fill="none" fill-rule="evenodd">
        <g id="Desktop" transform="translate(-375.000000, -1341.000000)" fill="#111111" fill-rule="nonzero">
            <g id="flecha-punteada-rizada" transform="translate(375.600805, 1341.662361)">
                <path d="M14.5833637,261.818164 C12.9903308,259.73658 10.3352761,258.17603 8.21123232,256.096146 C6.08718853,254.016262 4.4941557,250.895161 2.90112286,248.293394 C1.83910097,246.732844 -0.815953762,247.774061 0.24606813,249.334611 C2.37011191,254.535596 6.08718853,263.898898 12.4593199,264.419931 C14.5833637,264.939265 15.6453856,263.378715 14.5833637,261.818164 Z" id="Path"></path>
                <path d="M53.2982804,283.47566 C50.3627547,281.569249 46.9379748,281.092452 43.5131948,280.138857 C39.5991606,278.708465 35.6851264,277.278073 32.7496007,274.894086 C31.7710921,274.418068 30.7925836,275.371663 31.2818378,276.324478 C36.1743806,281.569249 44.4917034,287.290817 52.3197719,287.767615 C54.276789,287.290038 54.7660433,284.430033 53.2982804,283.47566 Z" id="Path"></path>
                <path d="M85.0891049,262.17814 C82.5527932,264.78692 80.5237439,267.91558 77.48017,270.001922 C74.436596,272.089116 71.393022,272.610701 67.8421857,273.131434 C65.8131364,273.653872 66.8276611,275.740214 68.3494481,276.262652 C76.9729076,277.30497 85.0891049,273.131434 88.6399412,265.307653 C89.1472035,262.700578 86.6108918,260.092651 85.0891049,262.17814 Z" id="Path"></path>
                <path d="M90.8542792,232.276964 C90.3930328,231.7938 89.4705402,231.7938 88.5480476,232.276964 C86.7030623,234.213573 87.1643086,236.632554 87.1643086,238.569163 C87.1643086,241.956053 86.7030623,244.85978 85.3193233,247.763507 C84.858077,249.700115 87.1643086,250.667233 88.0868012,249.21537 C89.4705402,246.311643 90.3930328,243.407917 90.8542792,240.50419 C92.2380181,238.084417 93.1605108,234.213573 90.8542792,232.276964 Z" id="Path"></path>
                <path d="M81.0089568,218.412127 C77.9961052,216.909065 75.4853956,214.403962 72.9746859,212.39988 C70.4639763,209.893958 68.4554086,207.388855 65.442557,205.385592 C63.4339893,204.382732 61.4254216,206.388452 62.4297055,208.391715 C64.4382732,211.397839 67.4511247,213.902942 70.4639763,216.408863 C72.9746859,218.412127 75.9875375,220.416209 79.000389,221.918452 C81.5102782,222.920494 83.5196664,219.915189 81.0089568,218.412127 Z" id="Path"></path>
                <path d="M46.0885918,202.868751 C42.691547,202.868751 39.7797943,203.375354 36.8680417,204.897653 C34.4415811,206.419951 31.0445363,209.464547 31.0445363,212.510802 C31.0445363,214.0331 32.9857048,215.555398 34.4415811,214.539704 C36.3827495,213.017405 37.8386259,210.986845 39.2945022,209.464547 C41.2356707,207.942249 43.6621312,206.928213 45.6032997,206.928213 C48.5150523,206.928213 48.9995515,203.375354 46.0885918,202.868751 Z" id="Path"></path>
                <path d="M47.0834351,238.320889 C45.0835565,235.298965 45.0835565,231.269733 46.0834958,228.247809 C46.5834654,226.736846 44.0836172,225.728715 43.5836475,227.239677 C42.0837386,231.26891 41.0837992,234.794488 42.0837386,238.82372 C43.0836779,242.348476 45.5835261,247.385839 49.0833137,248.39397 C50.5832227,248.896801 52.0831316,247.385839 51.583162,245.874877 C51.0831923,242.853776 48.5833441,240.838336 47.0834351,238.320889 Z" id="Path"></path>
                <path d="M81.2878065,256.798487 C79.1859326,255.789538 76.5585902,256.294425 73.9312478,255.283826 C70.778437,254.274878 68.1510946,252.254506 65.5237522,250.235783 C63.9473467,248.721123 61.8454728,250.739845 63.4218783,252.254506 C67.1001576,256.2936 74.9821848,263.36284 81.2878065,261.344118 C83.3888218,260.333519 83.3888218,257.304198 81.2878065,256.798487 Z" id="Path"></path>
                <path d="M129.040488,246.893631 C122.722667,251.09361 116.404846,255.294446 109.601039,257.918575 C107.657094,258.969428 108.143081,262.118554 110.573012,261.594414 C118.348791,259.493567 127.096543,257.918575 131.956405,250.043615 C133.415158,248.468623 130.985227,245.844494 129.040488,246.893631 Z" id="Path"></path>
                <path d="M147.521702,214.858732 C147.026354,212.870306 144.549613,212.870306 143.558917,213.864926 C141.082176,215.853352 140.09148,220.32914 138.110087,223.312998 C136.128695,226.296857 133.651954,229.280715 131.175213,232.264574 C129.689169,233.756503 132.16591,236.243052 133.651954,234.751935 C137.119391,231.768077 140.09148,228.784218 143.063569,225.80036 C145.54031,222.816501 148.511589,218.838023 147.521702,214.858732 Z" id="Path"></path>
                <path d="M151.322716,172.55825 C150.389657,171.058056 147.590479,171.557304 148.057009,173.557563 C148.523539,181.559417 151.322716,189.060389 151.322716,196.560544 C151.322716,198.060738 153.188835,198.060738 153.188835,196.560544 C153.655364,188.560324 155.520721,179.558341 151.322716,172.55825 Z" id="Path"></path>
                <path d="M143.897632,155.242577 C142.397527,152.091689 140.897421,148.9408 138.397245,146.31506 C135.89707,143.16503 133.396894,138.963845 129.896648,137.913549 C128.396542,137.388401 126.396401,138.963845 127.396472,140.539289 C128.396542,143.690178 131.396753,145.79077 133.396894,147.890504 C135.89707,150.517103 138.897281,153.667133 140.897421,156.818021 C142.397527,158.919472 144.897702,157.344028 143.897632,155.242577 Z" id="Path"></path>
                <path d="M110.25822,125.526133 C107.280135,122.381643 103.805704,120.809399 99.8349249,119.237154 C95.3677986,118.188991 89.4116302,117.140827 85.4408512,118.713072 C82.9591144,119.761235 82.9591144,122.905725 85.4408512,123.953888 C92.8860618,127.098378 101.323967,122.905725 108.27283,128.670622 C109.761061,129.718785 111.250914,127.098378 110.25822,125.526133 Z" id="Path"></path>
                <path d="M79.0046624,136.436051 C71.8418477,142.384726 59.5627368,155.769245 67.7488107,165.18879 C69.2836996,166.675959 71.8418477,165.683703 72.3534773,164.196534 C73.3767366,160.230751 72.3534773,156.264158 73.3767366,152.794908 C74.9116254,147.836868 78.4930328,143.376172 81.5628105,139.410389 C83.0976993,136.932584 80.5403872,134.949693 79.0046624,136.436051 Z" id="Path"></path>
                <path d="M92.4496706,188.366643 C89.322564,185.77841 86.1954573,183.709346 83.0683507,181.121958 C79.941244,178.017094 77.8565062,174.395597 75.7717685,170.772409 C75.250584,169.219977 72.6446618,170.255777 73.1658463,171.80821 C75.250584,180.087004 80.4624285,192.507308 90.8861173,191.988985 C92.4496706,191.98814 94.013224,189.401598 92.4496706,188.366643 Z" id="Path"></path>
                <path d="M125.466842,200.794927 C119.328502,199.17095 112.678633,200.252717 107.56335,195.921227 C106.540293,194.83946 105.005708,196.463437 106.028764,197.546973 C111.144048,203.499787 118.816974,205.666859 125.978371,204.042882 C127.001428,204.042882 127.001428,201.336253 125.466842,200.794927 Z" id="Path"></path>
                <path d="M169.96829,208.107487 C163.516001,203.546916 153.09226,204.687059 145.648122,205.82627 C143.662802,205.82627 143.662802,209.246699 145.648122,209.817702 C149.618762,210.386841 154.085731,210.386841 158.056371,211.527916 C161.530681,212.097056 165.004991,213.80727 168.4793,213.80727 C171.45728,213.23813 171.952799,209.246699 169.96829,208.107487 Z" id="Path"></path>
                <path d="M210.49989,189.236446 C206.346937,190.759728 203.751342,193.298531 200.117508,195.836504 C196.483675,198.884727 192.85069,200.914939 188.696889,202.945152 C186.620413,203.961503 188.17777,207.514997 190.254246,207.007236 C194.407199,205.990886 197.521913,203.960673 201.155746,201.93046 C205.308699,199.390828 209.4625,196.852025 213.095485,193.298531 C214.651994,191.775249 213.094637,188.220095 210.49989,189.236446 Z" id="Path"></path>
                <path d="M231.687123,151.831662 C231.18548,149.705757 228.175623,149.705757 227.67398,151.831662 C226.169051,157.673776 224.664122,162.988103 221.152622,167.768568 C220.149336,169.362345 221.654265,170.956122 223.159193,169.892736 C228.175623,165.112272 232.68959,159.800549 231.687123,151.831662 Z" id="Path"></path>
                <path d="M230.322329,110.137943 C228.905076,108.133302 226.070569,109.636783 226.542987,111.641423 C228.431886,118.156504 228.905076,125.172745 229.377494,131.687827 C229.377494,133.692467 232.684419,133.692467 232.684419,131.687827 C233.630026,124.671585 234.57409,116.653024 230.322329,110.137943 Z" id="Path"></path>
                <path d="M215.160996,68.431456 C213.747479,66.4704547 211.391619,68.9217064 212.333963,70.8827077 C215.160996,77.7462122 219.401545,84.1194664 222.69975,90.9829709 C223.170922,92.4537219 225.526782,91.4732212 225.05561,90.0024703 C223.170922,82.1584651 220.343119,74.3144599 215.160996,68.431456 Z" id="Path"></path>
                <path d="M191.406136,54.7420496 C186.858327,50.1750487 178.268848,43.5782696 171.19448,46.1154924 C169.173232,46.6229369 169.173232,49.6676042 171.19448,50.1750487 C174.226352,51.1899378 177.258224,50.6824932 180.290097,51.6973823 C183.321969,52.7122714 186.353841,54.7420496 188.880401,57.2792723 C190.396337,58.2941614 192.417585,56.2635541 191.406136,54.7420496 Z" id="Path"></path>
                <path d="M155.695757,52.2034592 C151.303216,52.2034592 147.398735,53.2387026 144.470375,56.8620542 C142.030074,59.9677842 138.125594,66.6968658 140.565894,70.8378391 C141.542014,72.9083257 143.982315,72.3907041 145.446495,70.8378391 C146.422615,69.2849741 146.422615,68.2497308 146.422615,66.6968658 C146.422615,65.1440008 146.910675,63.0735141 147.886795,61.5206492 C149.350976,58.4149192 152.279336,54.7915675 155.695757,54.2739459 C157.15914,54.2747917 157.15914,52.2034592 155.695757,52.2034592 Z" id="Path"></path>
                <path d="M165.401224,105.214355 C162.878704,101.575734 158.842673,98.9767194 156.319329,95.8579017 C153.293131,92.219281 151.275115,88.0608574 149.257099,83.9024337 C148.248092,81.8232219 145.221068,83.3826307 145.725572,85.4618426 C147.743588,93.7786899 153.797634,106.253961 162.3742,108.852976 C164.392216,109.372779 166.409407,106.773764 165.401224,105.214355 Z" id="Path"></path>
                <path d="M206.585672,127.035224 C202.55516,124.996668 198.524649,124.487029 193.990323,122.958113 C187.943732,121.429196 182.905592,118.371364 178.371267,114.294253 C176.356834,112.255698 173.333127,115.313531 175.348383,117.352086 C182.401778,124.996668 194.997128,131.621973 205.577221,131.621973 C207.592477,131.62114 208.600928,128.054501 206.585672,127.035224 Z" id="Path"></path>
                <path d="M247.876546,93.3053054 C245.249226,95.8776345 244.723762,99.4788953 243.672834,102.56569 C242.096442,106.681417 239.994586,111.311609 237.366408,114.91287 C235.265411,116.970733 238.418195,120.057528 240.52005,117.999665 C243.672834,114.91287 246.299295,111.311609 248.40201,107.710348 C250.504724,104.109088 253.131185,99.4788953 252.605721,95.3631687 C252.081116,93.3053054 249.452938,91.761908 247.876546,93.3053054 Z" id="Path"></path>
                <path d="M260.786795,57.8574507 C254.326157,63.4627862 252.338269,75.1830333 252.835241,83.3362486 C252.835241,85.8841284 256.314046,85.8841284 256.811018,83.3362486 C257.307178,79.7692169 258.301934,75.6926092 259.295879,72.1255775 C260.786795,68.0489699 263.768628,64.4819381 264.762572,60.4053305 C264.762572,57.8574507 262.2769,56.3278902 260.786795,57.8574507 Z" id="Path"></path>
                <path d="M282.348693,29.9933509 C279.216237,29.4656987 276.605857,32.1039596 274.5167,33.6869162 C271.90632,35.7975249 270.340092,38.963438 269.29594,41.6016989 C268.251788,44.2399598 271.907173,46.3505685 272.950472,43.7123076 C274.5167,41.6016989 275.561705,39.4910901 277.649156,37.3804814 C279.73746,35.7975249 282.869916,35.2698727 283.914921,32.6316118 C284.436144,32.1039596 283.914921,30.5210031 282.348693,29.9933509 Z" id="Path"></path>
                <path d="M310.249909,18.1254082 C309.229149,13.2266492 307.698009,7.83801437 305.656489,2.93925539 C305.146109,1.46962769 303.614969,2.27373675e-13 302.083829,2.27373675e-13 C291.876229,0.489875898 282.689389,3.42913129 274.012929,8.81776617 C270.950648,10.7772698 273.503382,15.1861528 277.075209,13.7165251 C284.220529,9.79751796 291.366683,7.83801437 299.021549,7.83801437 C300.042309,11.2671457 301.063069,14.6962769 302.083829,18.1254082 C303.105423,22.0444154 302.594209,25.9634226 305.146109,28.902678 C306.677249,30.8621816 309.229149,29.8824298 310.249909,28.4128021 C312.802643,25.4735467 311.270669,21.0638632 310.249909,18.1254082 Z" id="Path"></path>
            </g>
        </g>
    </g>
</svg>