<?xml version="1.0" encoding="UTF-8"?>
<svg width="171px" height="184px" viewBox="0 0 171 184" version="1.1" xmlns="http://www.w3.org/2000/svg" xmlns:xlink="http://www.w3.org/1999/xlink">
    <title>Group 108</title>
    <defs>
        <path d="M0,0 C0.555400228,4.75981836 3.9341587,9.15019538 10.8304098,8.13360051 L0,0 Z" id="path-1"></path>
        <path d="M13.1443456,1.65988965 C9.07166348,-0.88159752 3.56359688,-1.02003283 0,4.94110107 L13.1443456,1.65988965 Z" id="path-3"></path>
    </defs>
    <g id="Page-1" stroke="none" stroke-width="1" fill="none" fill-rule="evenodd">
        <g id="Desktop" transform="translate(-372.000000, -3592.000000)">
            <g id="Group-108" transform="translate(372.000000, 3593.000000)">
                <g id="Group" transform="translate(32.929851, 0.000000)">
                    <path d="M94.5129865,178.45099 L104.093735,178.45099 C110.619551,178.45099 116.914003,173.182454 118.210316,166.666737 L132.835981,90.3240811 C134.131873,83.8083644 129.92012,78.5402486 123.393883,78.5402486 L106.037362,78.5402486" id="Path" stroke="#FFFFFF" stroke-width="9.00595336"></path>
                    <path d="M75.3506461,68.0957462 L94.3267152,68.0957462 C100.713881,68.0957462 105.897869,73.2712913 105.897869,79.6485727 L105.897869,168.745791 C105.897869,175.123073 100.43616,179.790741 94.048994,179.790741 L29.2518794,179.790741" id="Path" stroke="#FFFFFF" stroke-width="6.27701046"></path>
                    <path d="M32.8205334,54.7861799 L32.8205334,54.7861799 L32.8213762,54.7891253 L43.6967524,105.663471 C44.1868734,108.634571 42.7801461,111.554756 40.4547053,113.951076 C38.1292645,116.346553 34.9150316,118.185345 31.8777985,118.983136 C28.5565228,119.846148 24.745969,119.381611 21.5882075,117.973274 C18.427496,116.563674 15.9642482,114.23005 15.2688916,111.391495 L4.39300972,60.5163077 C4.39296758,60.5163077 4.39288329,60.515887 4.39284115,60.515887 C3.76693599,57.5014475 5.13649336,54.5497037 7.57453979,52.1500181 C10.0111534,49.751174 13.4875146,47.9342631 16.9874758,47.2033752 C19.9239875,46.6126056 23.5908343,46.9875171 26.6748459,48.2818241 C29.7609646,49.5773935 32.2166268,51.7713197 32.8205334,54.7861799 Z" id="Path" stroke="#FFFFFF" stroke-width="0.5"></path>
                    <path d="M62.0689149,32.8602567 L62.0684935,32.862613 C61.8480865,35.4604421 59.5095814,37.3990414 56.9072623,37.1348361 C54.2990431,36.8699576 52.3604734,34.5759709 52.6247089,31.9812556 L52.6247089,31.9797829 L55.2628494,4.29869562 L55.2628494,4.29869562 L55.2632709,4.2962972 C55.4836778,1.69846812 57.8221829,-0.240125363 60.4245021,0.0241170132 L60.4282949,0.0244452185 C63.0301926,0.244598599 64.9717124,2.57958994 64.7070555,5.17765466 L64.7070555,5.17912737 L62.0689149,32.8602567 Z" id="Path" stroke="#FFFFFF" stroke-width="0.5" fill="#FFFFFF" fill-rule="nonzero"></path>
                    <path d="M17.0675472,10.2606711 L17.0679686,10.2606711 L17.0662829,10.256295 C16.2280622,7.78890649 17.5521896,5.10141004 20.0226017,4.26448653 C22.4938567,3.4273316 25.1855187,4.74938882 26.0237393,7.2161041 C26.8615386,9.68168327 25.5399398,12.3671179 23.0728991,13.2061032 C22.4470782,13.3840073 21.7824859,13.471108 21.1680436,13.4273052 C19.3129167,13.2950132 17.6390038,12.059699 17.0675472,10.2606711 Z" id="Path" stroke="#FFFFFF" stroke-width="0.5" fill="#FFFFFF" fill-rule="nonzero"></path>
                    <path d="M17.5083611,166.374719 C17.6937895,166.892694 17.3987898,167.498611 16.8724259,167.69301 C16.7266118,167.728355 16.6161976,167.729617 16.4413049,167.729617 C16.0278838,167.688381 15.689477,167.425817 15.5360771,167.047119 C15.3527558,166.526619 15.6523913,165.918597 16.1842337,165.728827 C16.7063832,165.542844 17.318297,165.842437 17.5083611,166.374719 Z" id="Path" stroke="#FFFFFF" stroke-width="0.5" fill="#FFFFFF" fill-rule="nonzero"></path>
                    <path d="M74.4213969,114.872996 L74.4218184,114.872996 L74.4201327,114.86416 L69.2833443,88.9889588 C69.167873,88.2875252 69.634394,87.6168082 70.3491362,87.4548094 C71.051657,87.3411999 71.7234136,87.8086821 71.8835563,88.5235805 L77.0199232,114.395836 C77.1353946,115.098953 76.666345,115.771353 75.9490742,115.930827 C75.201882,116.087355 74.5402397,115.622398 74.4213969,114.872996 Z" id="Path" stroke="#FFFFFF" stroke-width="0.5" fill="#FFFFFF" fill-rule="nonzero"></path>
                    <path d="M69.9487794,81.7600268 C70.1342078,82.2775813 69.8392081,82.8839195 69.3128443,83.078318 C69.1670301,83.1132425 69.0570374,83.1145048 68.8829875,83.1145048 C68.5070736,83.072848 68.1277882,82.8048136 67.9764955,82.4320061 C67.7931742,81.9115061 68.0932311,81.3039056 68.624652,81.1141356 C69.1468016,80.9277318 69.7587153,81.2273243 69.9487794,81.7600268 Z" id="Path" stroke="#FFFFFF" stroke-width="0.5" fill="#FFFFFF" fill-rule="nonzero"></path>
                    <path d="M20.910551,25.1444447 L20.910551,25.1444447 L20.9097081,25.1412468 C20.1148945,22.6290036 21.4820076,19.9845104 23.9545269,19.1456093 C26.4729818,18.3529093 29.1621152,19.7214412 29.9560859,22.1831914 L32.5933836,30.9613366 L32.5933836,30.9613366 L32.5946479,30.9645345 C33.3898829,33.4791761 32.0198198,36.1652419 29.5544648,36.9586572 C28.9269582,37.1373187 28.3078802,37.2241669 27.6942807,37.1804062 C25.8429466,37.0483667 24.1665053,35.8164186 23.5478487,33.9221691 L20.910551,25.1444447 Z" id="Path" stroke="#FFFFFF" stroke-width="0.5" fill="#FFFFFF" fill-rule="nonzero"></path>
                    <path d="M101.703394,11.836856 L101.703394,11.836856 L101.700444,11.835257 C99.4070322,10.6463123 98.4811544,7.78427796 99.760189,5.45044375 L99.7627176,5.4460256 C100.953674,3.15618774 103.821493,2.23058148 106.160419,3.46429257 L106.161683,3.46505417 C108.455096,4.65387266 109.382238,7.51695895 108.147032,9.85205549 C107.21989,11.5707572 105.410277,12.496759 103.554307,12.3643829 L103.553043,12.3642987 C102.891401,12.3202435 102.275694,12.1444012 101.703394,11.836856 Z" id="Path" stroke="#FFFFFF" stroke-width="0.5" fill="#FFFFFF" fill-rule="nonzero"></path>
                    <path d="M83.9309243,46.9121982 L83.9309243,46.9121982 L83.9262886,46.9096735 C81.5894692,45.721402 80.6581129,42.8567589 81.8069262,40.4711271 L89.4887195,25.3621963 C89.4887195,25.3621542 89.4887195,25.36207 89.4887195,25.3619859 C90.6805184,23.0270156 93.5491802,22.1012663 95.8885281,23.2912209 C98.2274547,24.4808388 99.1545967,27.3452716 97.9627978,29.6812518 L97.9627978,29.6815463 L90.2797402,44.7927493 L90.2788973,44.7940117 C89.3972695,46.5549593 87.5438283,47.5256896 85.6895442,47.3935659 C85.1092376,47.3489637 84.4956381,47.2159985 83.9309243,46.9121982 Z" id="Path" stroke="#FFFFFF" stroke-width="0.5" fill="#FFFFFF" fill-rule="nonzero"></path>
                    <path d="M114.42884,163.660713 L117.526338,172.520994 L110.203601,179.832398 L99.0719968,179.294646 L100.839467,162.491377 C100.958731,163.245828 101.144159,164.113468 101.431573,164.982792 C102.22723,167.38963 103.843828,169.901663 107.101047,169.901663 C110.420637,169.901663 112.304421,168.116731 113.346613,166.344423 C113.865812,165.461635 114.177669,164.58095 114.360148,163.922015 C114.385433,163.830707 114.40819,163.743185 114.42884,163.660713 Z" id="Path" stroke="#FFFFFF" stroke-width="0.5" fill="#FFFFFF" fill-rule="nonzero"></path>
                    <g id="Clipped" transform="translate(0.000000, 158.856293)">
                        <mask id="mask-2" fill="white">
                            <use xlink:href="#path-1"></use>
                        </mask>
                        <g id="Path"></g>
                        <path d="M-0.459693883,0.0534385548 C-0.172153421,2.51792372 0.849936398,4.92139635 2.73110761,6.57925388 C4.62382595,8.24763081 7.33516857,9.11569174 10.8978383,8.59056327 L10.7629813,7.67621697 C7.42939992,8.16768336 5.00323776,7.349274 3.34369564,5.88665655 C1.67256425,4.4135197 0.727595791,2.24189465 0.459736026,-0.0534385548 L-0.459693883,0.0534385548 Z" id="Path" fill="#FFFFFF" fill-rule="nonzero" mask="url(#mask-2)"></path>
                    </g>
                    <path d="M0,158.856293 C0.555400228,163.616111 3.9341587,168.006488 10.8304098,166.989893" id="Path" stroke="#FFFFFF" stroke-width="3.13850102" stroke-linecap="round"></path>
                    <g id="Clipped" transform="translate(12.728101, 55.945490)">
                        <mask id="mask-4" fill="white">
                            <use xlink:href="#path-3"></use>
                        </mask>
                        <g id="Path"></g>
                        <path d="M13.3896168,1.26814718 C11.2824758,-0.0467778922 8.77329231,-0.759572474 6.30414448,-0.343845764 C3.81982523,0.0748263782 1.44339159,1.62496524 -0.397406795,4.70420417 L0.397406795,5.17799797 C2.12020529,2.296103 4.27960339,0.934892567 6.4583872,0.5675551 C8.65234242,0.198113753 10.9339547,0.825490802 12.8990744,2.05205291 L13.3896168,1.26814718 Z" id="Path" fill="#FFFFFF" fill-rule="nonzero" mask="url(#mask-4)"></path>
                    </g>
                    <path d="M16.9402759,46.9761561 C9.85901779,48.4547631 2.87017891,54.323747 4.16615492,60.5625931 L15.0430061,111.441988 C16.4775477,117.310972 25.1791972,120.961625 31.936377,119.205727 C38.0921788,117.588263 44.9420728,111.765565 43.9239022,105.61929 L33.0472618,54.7394737 C31.7977271,48.5010484 22.9110706,45.7744198 16.9402759,46.9761561 Z" id="Path" stroke="#FFFFFF" stroke-width="5.42805276"></path>
                    <path d="M34.9457958,104.140683 C34.9457958,107.883906 31.8908628,110.887826 28.1881946,110.887826 C24.4391693,110.887826 21.4310148,107.837621 21.4310148,104.140683 C21.4310148,100.397459 24.4855264,97.3939599 28.1881946,97.3939599 C31.9372199,97.3476745 34.9457958,100.397459 34.9457958,104.140683 Z" id="Path" fill="#FFFFFF" fill-rule="nonzero"></path>
                    <path d="M25.8732895,57.6045377 C21.8001859,55.0630505 16.2925407,54.9241944 12.7285224,60.8857491" id="Path" stroke="#FFFFFF" stroke-width="3.13850102" stroke-linecap="round"></path>
                </g>
                <path d="M14.1852726,59.7576486 L34.2447915,59.7576486 C34.2769043,60.2040919 34.3391492,60.6560054 34.4340549,61.1129681 L34.4340127,61.1129681 L34.4372999,61.1281161 L36.0695334,68.7635178 L14.1852726,68.7635178 C12.1865229,68.7635178 10.8403548,69.5385872 10.0537169,70.5210992 C9.25852407,71.5141306 8.75167237,73.0785759 9.16682129,75.1668873 L9.16698986,75.1677288 L27.2174762,165.835284 L27.2176448,165.836125 C28.1086704,170.316128 32.6091443,173.994131 36.9106198,173.994131 L121.100765,173.994131 C123.06462,173.994131 124.40434,173.227898 125.19789,172.23697 C125.999868,171.234682 126.512746,169.6614 126.116182,167.574351 L126.113232,167.560045 L108.068519,76.9227856 L108.068519,76.9219441 C107.17762,72.4419418 102.677188,68.7635178 98.3756703,68.7635178 L71.7544722,68.7635178 L69.8289667,59.7576486 L98.3756703,59.7576486 C107.125784,59.7576486 115.214256,66.6154562 116.915561,75.1668873 L116.915561,75.1677288 L134.966174,165.835284 L134.972495,165.866 C135.820409,170.287936 134.852388,174.601731 132.242905,177.860642 C129.622886,181.132596 125.616789,183 121.100765,183 L36.9106198,183 C28.1603797,183 20.071866,176.142613 18.3706447,167.591182 L18.3704761,167.590341 L0.319964468,76.9227856 L0.319799689,76.9219441 C-0.560719332,72.4945388 0.390343399,68.1672781 3.00847833,64.8974277 C5.6352951,61.616637 9.65799586,59.7576486 14.1852726,59.7576486 Z" id="Path" fill="#FFFFFF"></path>
            </g>
        </g>
    </g>
</svg>