<svg width="58" height="58" viewBox="0 0 58 58" fill="none" xmlns="http://www.w3.org/2000/svg">
<path d="M29 15.5C21.5561 15.5 15.5 21.5561 15.5 29C15.5 36.4439 21.5561 42.5 29 42.5C36.4439 42.5 42.5 36.4439 42.5 29C42.5 21.5561 36.4439 15.5 29 15.5ZM22.1204 33.3342C21.6312 33.6563 20.9731 33.5208 20.6509 33.0313L19.7431 31.6521C19.421 31.1627 19.5565 30.5048 20.046 30.1827C20.5355 29.8604 21.1934 29.9962 21.5154 30.4855L22.4233 31.8647C22.7454 32.3542 22.6098 33.0121 22.1204 33.3342ZM23.4113 26.1711C22.9178 26.1711 22.4757 25.8249 22.373 25.3225L21.7365 22.2104C21.6191 21.6364 21.9893 21.0759 22.5633 20.9585C23.1376 20.8408 23.6979 21.2112 23.8153 21.7852L24.4519 24.8973C24.5862 25.5542 24.0844 26.1711 23.4113 26.1711ZM30.0973 37.2392L27.8267 38.4298C27.3081 38.7018 26.6667 38.502 26.3944 37.9829C26.1223 37.464 26.3225 36.8228 26.8413 36.5507L29.1119 35.36C29.6306 35.0879 30.272 35.2879 30.5442 35.8069C30.8163 36.3259 30.6162 36.9671 30.0973 37.2392ZM29 32.3242C27.1641 32.3242 25.6758 30.8359 25.6758 29C25.6758 27.1641 27.1641 25.6758 29 25.6758C30.8359 25.6758 32.3242 27.1641 32.3242 29C32.3242 30.8359 30.8359 32.3242 29 32.3242ZM32.4855 21.6388L31.2831 22.7705C30.8565 23.172 30.1852 23.1519 29.7834 22.725C29.3818 22.2984 29.4021 21.627 29.8289 21.2254L31.0313 20.0937C31.4579 19.6921 32.1293 19.7123 32.5309 20.1391C32.9326 20.5658 32.9123 21.2372 32.4855 21.6388ZM36.5406 34.1342L35.3382 35.2658C34.9116 35.6673 34.2403 35.6472 33.8385 35.2204C33.437 34.7938 33.4572 34.1224 33.884 33.7207L35.0864 32.5891C35.513 32.1875 36.1844 32.2077 36.5861 32.6346C36.9876 33.0612 36.9673 33.7326 36.5406 34.1342ZM37.007 27.6318C36.4734 27.8743 35.8445 27.6382 35.6022 27.105L34.5413 24.771C34.2987 24.2376 34.5346 23.6085 35.068 23.3662C35.6012 23.1237 36.2305 23.3595 36.4728 23.8929L37.5337 26.227C37.7763 26.7604 37.5404 27.3894 37.007 27.6318Z" fill="#C5CEE0"/>
<rect x="1" y="1" width="56" height="56" rx="28" stroke="#C5CEE0" stroke-width="2"/>
</svg>
