<svg width="58" height="58" viewBox="0 0 58 58" fill="none" xmlns="http://www.w3.org/2000/svg">
<path d="M17.3955 29.4403L19.2046 40.295C19.3461 41.1441 20.0807 41.7664 20.9415 41.7664H37.3343C38.2107 41.7664 38.9536 41.122 39.0775 40.2545L40.6222 29.4403H17.3955ZM24.5979 37.3642C24.5979 37.8506 24.2038 38.2447 23.7174 38.2447C23.231 38.2447 22.837 37.8506 22.837 37.3642V32.0816C22.837 31.5952 23.231 31.2012 23.7174 31.2012C24.2038 31.2012 24.5979 31.5952 24.5979 32.0816V37.3642ZM29.8805 37.3642C29.8805 37.8506 29.4864 38.2447 29 38.2447C28.5137 38.2447 28.1196 37.8506 28.1196 37.3642V32.0816C28.1196 31.5952 28.5137 31.2012 29 31.2012C29.4864 31.2012 29.8805 31.5952 29.8805 32.0816V37.3642ZM35.1631 37.3642C35.1631 37.8506 34.769 38.2447 34.2826 38.2447C33.7963 38.2447 33.4022 37.8506 33.4022 37.3642V32.0816C33.4022 31.5952 33.7963 31.2012 34.2826 31.2012C34.769 31.2012 35.1631 31.5952 35.1631 32.0816V37.3642Z" fill="#C5CEE0"/>
<path d="M41.6195 24.1577H39.0493L31.3833 16.4917C31.0394 16.1478 30.4823 16.1478 30.1383 16.4917C29.7944 16.8353 29.7944 17.3931 30.1383 17.7367L36.5593 24.1577H21.4406L27.8616 17.7367C28.2055 17.3931 28.2055 16.8353 27.8616 16.4917C27.5177 16.1478 26.9605 16.1478 26.6166 16.4917L18.9507 24.1577H16.3805C15.8942 24.1577 15.5 24.5519 15.5 25.0381V26.799C15.5 27.2852 15.8942 27.6794 16.3805 27.6794H41.6196C42.1058 27.6794 42.5001 27.2852 42.5001 26.799V25.0381C42.5 24.5519 42.1058 24.1577 41.6195 24.1577Z" fill="#C5CEE0"/>
<rect x="1" y="1" width="56" height="56" rx="28" stroke="#C5CEE0" stroke-width="2"/>
</svg>
