<svg width="58" height="58" viewBox="0 0 58 58" fill="none" xmlns="http://www.w3.org/2000/svg">
<path fill-rule="evenodd" clip-rule="evenodd" d="M37.6484 21.9336H41.709C42.1462 21.9336 42.5 22.2874 42.5 22.7246V40.127C42.5 41.4355 41.4355 42.5 40.127 42.5H35.3607C35.8626 41.8369 36.1719 41.0207 36.1719 40.127V29.0527C36.1719 27.7442 35.1074 26.6797 33.7988 26.6797H23.3047V22.7246C23.3047 22.2874 23.6585 21.9336 24.0957 21.9336H28.1562V20.2461C28.1562 17.6289 30.2852 15.5 32.9023 15.5C35.5195 15.5 37.6484 17.6289 37.6484 20.2461V21.9336ZM29.7383 20.2461V21.9336H36.0664V20.2461C36.0664 18.5011 34.6474 17.082 32.9023 17.082C31.1573 17.082 29.7383 18.5011 29.7383 20.2461ZM16.291 28.2617H33.7988C34.236 28.2617 34.5898 28.6155 34.5898 29.0527V40.127C34.5898 41.4355 33.5253 42.5 32.2168 42.5H17.873C16.5645 42.5 15.5 41.4355 15.5 40.127V29.0527C15.5 28.6155 15.8538 28.2617 16.291 28.2617ZM24.9922 37.7539C27.6093 37.7539 29.7383 35.625 29.7383 33.0078V32.2168C29.7383 31.7796 29.3845 31.4258 28.9473 31.4258C28.51 31.4258 28.1562 31.7796 28.1562 32.2168V33.0078C28.1562 34.7528 26.7372 36.1719 24.9922 36.1719C23.2472 36.1719 21.8281 34.7528 21.8281 33.0078V32.2168C21.8281 31.7796 21.4743 31.4258 21.0371 31.4258C20.5999 31.4258 20.2461 31.7796 20.2461 32.2168V33.0078C20.2461 35.625 22.375 37.7539 24.9922 37.7539Z" fill="#C5CEE0"/>
<rect x="1" y="1" width="56" height="56" rx="28" stroke="#C5CEE0" stroke-width="2"/>
</svg>
