<svg width="58" height="58" viewBox="0 0 58 58" fill="none" xmlns="http://www.w3.org/2000/svg">
<path d="M39.3352 19.0398L37.0852 16.7898C36.8654 16.57 36.5095 16.57 36.2898 16.7898C36.07 17.0095 36.07 17.3655 36.2898 17.5852L38.1421 19.4375L36.2898 21.2897C36.1843 21.3952 36.125 21.538 36.125 21.6875V23.375C36.125 24.6159 37.1341 25.625 38.375 25.625V35.1874C38.375 35.4978 38.1229 35.75 37.8125 35.75C37.5021 35.75 37.25 35.4978 37.25 35.1874V34.0625C37.25 33.1319 36.493 32.375 35.5625 32.375H35V17.75C35 16.5091 33.9909 15.5 32.75 15.5H21.5C20.2591 15.5 19.25 16.5091 19.25 17.75V38C18.0091 38 17 39.009 17 40.25V41.9375C17 42.2484 17.2516 42.5 17.5625 42.5H36.6875C36.9984 42.5 37.25 42.2484 37.25 41.9375V40.25C37.25 39.0091 36.2409 38 35 38V33.5H35.5625C35.8729 33.5 36.125 33.7521 36.125 34.0625V35.1875C36.125 36.118 36.882 36.875 37.8125 36.875C38.7431 36.875 39.5 36.118 39.5 35.1875V19.4375C39.5 19.2881 39.4406 19.1453 39.3352 19.0398ZM32.75 25.0729C32.75 25.3838 32.4984 25.6354 32.1875 25.6354H22.0625C21.7516 25.6354 21.5 25.3838 21.5 25.0729V18.3125C21.5 18.0016 21.7516 17.75 22.0625 17.75H32.1875C32.4984 17.75 32.75 18.0016 32.75 18.3125V25.0729Z" fill="#C5CEE0"/>
<rect x="1" y="1" width="56" height="56" rx="28" stroke="#C5CEE0" stroke-width="2"/>
</svg>
