<?xml version="1.0" encoding="UTF-8"?>
<svg width="65px" height="65px" viewBox="0 0 65 65" version="1.1" xmlns="http://www.w3.org/2000/svg" xmlns:xlink="http://www.w3.org/1999/xlink">
    <title>Group 12@2x</title>
    <g id="Page-1" stroke="none" stroke-width="1" fill="none" fill-rule="evenodd">
        <g id="Desktop" transform="translate(-181.000000, -849.000000)">
            <g id="Group-12" transform="translate(181.000000, 849.000000)">
                <rect id="Rectangle" stroke="#111111" stroke-width="3" x="1.5" y="1.5" width="62" height="62" rx="17"></rect>
                <g id="user" transform="translate(20.000000, 17.000000)" fill="#111111">
                    <path d="M7.75,21.7 C5.1818825,21.7 3.1,23.781805 3.1,26.35 C3.1,27.206065 3.793966,27.9 4.65,27.9 L20.15,27.9 C21.006065,27.9 21.7,27.206065 21.7,26.35 C21.7,23.781805 19.618195,21.7 17.05,21.7 L7.75,21.7 Z M0,26.35 C0,22.06983 3.469799,18.6 7.75,18.6 L17.05,18.6 C21.33017,18.6 24.8,22.06983 24.8,26.35 C24.8,28.918195 22.718195,31 20.15,31 L4.65,31 C2.0818825,31 0,28.918195 0,26.35 Z" id="Shape"></path>
                    <path d="M12.4,3.1 C9.831805,3.1 7.75,5.1818825 7.75,7.75 C7.75,10.3181175 9.831805,12.4 12.4,12.4 C14.968195,12.4 17.05,10.3181175 17.05,7.75 C17.05,5.1818825 14.968195,3.1 12.4,3.1 Z M4.65,7.75 C4.65,3.469799 8.119799,0 12.4,0 C16.68017,0 20.15,3.469799 20.15,7.75 C20.15,12.030201 16.68017,15.5 12.4,15.5 C8.119799,15.5 4.65,12.030201 4.65,7.75 Z" id="Shape"></path>
                </g>
            </g>
        </g>
    </g>
</svg>