<?xml version="1.0" encoding="UTF-8"?>
<svg width="65px" height="65px" viewBox="0 0 65 65" version="1.1" xmlns="http://www.w3.org/2000/svg" xmlns:xlink="http://www.w3.org/1999/xlink">
    <title>Group 10</title>
    <g id="Page-1" stroke="none" stroke-width="1" fill="none" fill-rule="evenodd">
        <g id="Desktop" transform="translate(-397.000000, -1061.000000)">
            <g id="Group-10" transform="translate(397.000000, 1061.000000)">
                <rect id="Rectangle" stroke="#111111" stroke-width="3" x="1.5" y="1.5" width="62" height="62" rx="17"></rect>
                <g id="line-01-up.2" transform="translate(20.000000, 19.000000)" fill="#111111">
                    <path d="M1.44444444,0 C2.24218222,0 2.88888889,0.646706667 2.88888889,1.44444444 L2.88888889,20.2222222 C2.88888889,21.8177556 4.18228778,23.1111111 5.77777778,23.1111111 L24.5555556,23.1111111 C25.3533222,23.1111111 26,23.7577889 26,24.5555556 C26,25.3533222 25.3533222,26 24.5555556,26 L5.77777778,26 C2.58679778,26 0,23.4131444 0,20.2222222 L0,1.44444444 C0,0.646706667 0.646706667,0 1.44444444,0 Z" id="Path"></path>
                    <path d="M22.7244584,0.418414286 C22.1666003,-0.139471429 21.2620273,-0.139471429 20.7041691,0.418414286 L17.8470212,3.27555714 C17.289163,3.83345714 17.289163,4.73797143 17.8470212,5.29587143 C18.4048793,5.85375714 19.3094523,5.85375714 19.8673105,5.29587143 L20.2857398,4.87744286 L20.2857398,8.57142857 C20.2857398,13.3052857 16.4481615,17.1428571 11.7142959,17.1428571 L7.42857398,17.1428571 C6.63960114,17.1428571 6,17.7824286 6,18.5714286 C6,19.3604286 6.63960114,20 7.42857398,20 L11.7142959,20 C18.0261643,20 23.1428878,14.8832857 23.1428878,8.57142857 L23.1428878,4.87744286 L23.5613171,5.29587143 C24.1191752,5.85375714 25.0237483,5.85375714 25.5816064,5.29587143 C26.1394645,4.73797143 26.1394645,3.83345714 25.5816064,3.27555714 L22.7244584,0.418414286 Z" id="Path"></path>
                </g>
            </g>
        </g>
    </g>
</svg>