<?xml version="1.0" encoding="UTF-8"?>
<svg width="65px" height="65px" viewBox="0 0 65 65" version="1.1" xmlns="http://www.w3.org/2000/svg" xmlns:xlink="http://www.w3.org/1999/xlink">
    <title>Group 13</title>
    <g id="Page-1" stroke="none" stroke-width="1" fill="none" fill-rule="evenodd">
        <g id="Desktop" transform="translate(-397.000000, -849.000000)">
            <g id="Group-13" transform="translate(397.000000, 849.000000)">
                <rect id="Rectangle" stroke="#111111" stroke-width="3" x="1.5" y="1.5" width="62" height="62" rx="17"></rect>
                <g id="mobile-02" transform="translate(21.000000, 17.000000)" fill="#111111">
                    <path d="M15.8740155,0 L8.92598547,0 C7.67829747,0 6.64852397,0 5.80967947,0.0684949662 C4.93842447,0.139686466 4.13752397,0.292454466 3.38526247,0.675769466 C2.21865497,1.27017897 1.27017897,2.21865497 0.675769466,3.38526247 C0.292454466,4.13752397 0.139686466,4.93842447 0.0684949662,5.80967947 C0,6.64852397 0,7.67826647 0,8.92596997 L0,22.0740155 C0,23.3217655 0,24.3514305 0.0684949662,25.1902905 C0.139686466,26.0615455 0.292454466,26.8624305 0.675769466,27.6148005 C1.27017897,28.7813305 2.21865497,29.7297755 3.38526247,30.3242005 C4.13752397,30.7075155 4.93842447,30.8603455 5.80967947,30.9314905 C6.64852397,31 7.67826647,31 8.92595447,31 L15.8740155,31 C17.1217655,31 18.1514305,31 18.9902905,30.9314905 C19.8615455,30.8603455 20.6624305,30.7075155 21.4148005,30.3242005 C22.5813305,29.7297755 23.5297755,28.7813305 24.1242005,27.6148005 C24.5075155,26.8624305 24.6603455,26.0615455 24.7314905,25.1902905 C24.8000005,24.3514305 24.8000005,23.3217655 24.8000005,22.0740155 L24.8000005,8.92595447 C24.8000005,7.67828197 24.8000005,6.64850847 24.7314905,5.80967947 C24.6603455,4.93842447 24.5075155,4.13752397 24.1242005,3.38526247 C23.5297755,2.21865497 22.5813305,1.27017897 21.4148005,0.675769466 C20.6624305,0.292454466 19.8615455,0.139686466 18.9902905,0.0684949662 C18.1514305,0 17.1217655,0 15.8740155,0 Z M4.79263147,3.43788497 C5.03505147,3.31436547 5.38256147,3.21372397 6.06211247,3.15820297 C6.51717697,3.12103397 7.05942897,3.10757997 7.75000047,3.10272847 L7.75000047,4.65000047 C7.75000047,5.50604997 8.44396647,6.20000047 9.30000047,6.20000047 L15.5000005,6.20000047 C16.3560655,6.20000047 17.0500005,5.50604997 17.0500005,4.65000047 L17.0500005,3.10272847 C17.7405255,3.10757997 18.2828705,3.12103397 18.7379505,3.15820297 C19.4174705,3.21372397 19.7649805,3.31436547 20.0074005,3.43788497 C20.5906655,3.73508197 21.0649655,4.20933547 21.3621005,4.79263147 C21.4856355,5.03505147 21.5862305,5.38256147 21.6418755,6.06211247 C21.6987605,6.75975197 21.7000005,7.66230147 21.7000005,8.99000047 L21.7000005,22.0100005 C21.7000005,23.3377305 21.6987605,24.2402955 21.6418755,24.9379505 C21.5862305,25.6174705 21.4856355,25.9649805 21.3621005,26.2074005 C21.0649655,26.7906655 20.5906655,27.2649655 20.0074005,27.5621005 C19.7649805,27.6856355 19.4174705,27.7862305 18.7379505,27.8417205 C18.0402955,27.8987605 17.1377305,27.9000005 15.8100005,27.9000005 L8.99000047,27.9000005 C7.66230147,27.9000005 6.75975197,27.8987605 6.06211247,27.8417205 C5.38256147,27.7862305 5.03505147,27.6856355 4.79263147,27.5621005 C4.20933547,27.2649655 3.73508197,26.7906655 3.43788497,26.2074005 C3.31436547,25.9649805 3.21372397,25.6174705 3.15820297,24.9379505 C3.10120947,24.2402955 3.10000047,23.3377305 3.10000047,22.0100005 L3.10000047,8.99000047 C3.10000047,7.66230147 3.10120947,6.75975197 3.15820297,6.06211247 C3.21372397,5.38256147 3.31436547,5.03505147 3.43788497,4.79263147 C3.73508197,4.20933547 4.20933547,3.73508197 4.79263147,3.43788497 Z" id="Shape"></path>
                </g>
            </g>
        </g>
    </g>
</svg>