<?xml version="1.0" encoding="UTF-8"?>
<svg width="65px" height="65px" viewBox="0 0 65 65" version="1.1" xmlns="http://www.w3.org/2000/svg" xmlns:xlink="http://www.w3.org/1999/xlink">
    <title>Group 11</title>
    <g id="Page-1" stroke="none" stroke-width="1" fill="none" fill-rule="evenodd">
        <g id="Desktop" transform="translate(-181.000000, -1061.000000)">
            <g id="Group-11" transform="translate(181.000000, 1061.000000)">
                <rect id="Rectangle" stroke="#111111" stroke-width="3" x="1.5" y="1.5" width="62" height="62" rx="17"></rect>
                <g id="heart.2" transform="translate(15.000000, 18.000000)" fill="#111111">
                    <path d="M17.2189219,7.25238607 L14.9222621,5.19677395 C13.7013889,4.1040956 12.0975841,3.44378439 10.3313532,3.44378439 C6.52745224,3.44378439 3.44378439,6.52745224 3.44378439,10.3313532 C3.44378439,15.496341 5.75068945,19.3058553 8.66497477,22.1264869 C11.6303142,24.9965368 15.1178691,26.7208396 17.0221097,27.5148041 C17.1545232,27.5699047 17.2833207,27.5699047 17.4157342,27.5148041 C19.3199748,26.7208396 22.8074952,24.9965368 25.772938,22.1264869 C28.6870683,19.3056831 30.9940595,15.496341 30.9940595,10.331422 C30.9940595,6.52752111 27.9103227,3.44378439 24.1064907,3.44378439 C22.3401737,3.44378439 20.7364033,4.1040956 19.5155817,5.19677395 L17.2189219,7.25238607 Z M17.2189219,2.63068967 C15.3911334,0.994754339 12.9774021,0 10.3313532,0 C4.62550178,0 0,4.62550178 0,10.3313532 C0,22.9891549 11.4875349,28.9382924 15.6967692,30.6934171 C16.6773868,31.1021943 17.760457,31.1021943 18.7410746,30.6934171 C22.9502401,28.9382924 34.4378439,22.989327 34.4378439,10.3314393 C34.4378439,4.62558787 29.8123249,0 24.1064907,0 C21.460459,0 19.0467105,0.994754339 17.2189219,2.63068967 Z" id="Shape"></path>
                </g>
            </g>
        </g>
    </g>
</svg>