<svg width="65" height="64" viewBox="0 0 65 64" fill="none" xmlns="http://www.w3.org/2000/svg">
<rect x="0.5" width="64.0002" height="64.0002" rx="32.0001" fill="url(#paint0_linear)"/>
<g clip-path="url(#clip0)">
<path d="M48.4901 30.2053V30.205C48.4378 29.7065 48.1795 29.247 47.7816 28.9426L45.9603 27.5246L46.6448 25.2658C46.7908 24.7838 46.7303 24.2572 46.4786 23.8207C46.2266 23.3844 45.8008 23.0687 45.3103 22.954L43.0191 22.419L42.7266 20.0845C42.6638 19.5845 42.3943 19.128 41.9871 18.8326C41.5793 18.5359 41.0615 18.4205 40.5671 18.5157L38.2563 18.9588L37.0392 16.9448C36.5549 16.1433 35.5378 15.8406 34.674 16.24C34.6132 16.2681 34.5546 16.3018 34.5036 16.3379L32.4979 17.7349L30.567 16.3899C30.1536 16.1023 29.6344 15.9976 29.1417 16.1021C28.649 16.2066 28.2169 16.5142 27.9563 16.9453L26.7398 18.959L24.4287 18.5157C23.9338 18.4209 23.4165 18.5364 23.0095 18.8323C22.6018 19.1285 22.3322 19.585 22.2697 20.0845L21.9773 22.4193L19.5539 22.985L19.4401 23.0221L19.3981 23.0404C18.5177 23.4254 18.0773 24.3614 18.3512 25.2658L19.0356 27.5246L17.1361 29.0021L17.026 29.0978L16.995 29.1318C16.3576 29.8281 16.3327 30.8813 16.9357 31.5854L18.4228 33.3638L17.2174 35.5511L17.1693 35.6604L17.1554 35.7012C16.8549 36.5994 17.2643 37.5755 18.1076 37.9713L20.2375 38.9708L20.038 41.315C19.9953 41.8173 20.1643 42.3199 20.5012 42.694C20.8381 43.0682 21.3203 43.2887 21.8242 43.299L24.1765 43.3458L24.948 45.5683C25.113 46.0444 25.4717 46.435 25.9317 46.6396C26.3916 46.8444 26.9217 46.8498 27.3865 46.6542L29.5548 45.7404L31.2567 47.5566L31.3458 47.6359L31.3802 47.6616C31.7164 47.9099 32.1092 48.0314 32.4984 48.0314C32.9908 48.0314 33.4772 47.8366 33.8329 47.457L35.4418 45.7404L37.6103 46.6545C38.0742 46.8498 38.604 46.8444 39.0639 46.6398C39.5244 46.435 39.883 46.0444 40.0481 45.5685L40.8198 43.3458L43.3081 43.2963L43.4263 43.2833L43.4688 43.2748C44.3965 43.0856 45.0369 42.243 44.958 41.3153L44.7588 38.9708L46.889 37.9713C47.3448 37.7574 47.6956 37.3599 47.8514 36.8807C48.0069 36.4017 47.9569 35.8738 47.7137 35.4326L46.5735 33.3638L48.0609 31.5854C48.3858 31.2058 48.5423 30.7033 48.4901 30.2053ZM32.5975 40.0174C28.2037 40.0174 24.6289 36.4427 24.6289 32.0488C24.6289 27.6547 28.2037 24.0802 32.5975 24.0802C36.9916 24.0802 40.5664 27.6547 40.5664 32.0488C40.5664 36.4427 36.9914 40.0174 32.5975 40.0174Z" fill="white"/>
<path d="M32.5978 25.9561C29.2387 25.9561 26.5055 28.689 26.5055 32.0484C26.5055 35.4076 29.2387 38.1405 32.5978 38.1405C35.9573 38.1405 38.6902 35.4076 38.6902 32.0484C38.6902 28.689 35.9573 25.9561 32.5978 25.9561ZM36.2151 30.9009L31.8503 35.2655C31.6672 35.4489 31.4272 35.5404 31.1869 35.5404C30.9469 35.5404 30.7067 35.4489 30.5236 35.2655L28.8558 33.5978C28.4894 33.2313 28.4894 32.6373 28.8558 32.2708C29.2221 31.9046 29.8161 31.9046 30.1825 32.2708L31.1872 33.2755L34.8884 29.5743C35.2546 29.2078 35.8489 29.2078 36.2151 29.5743C36.5815 29.9405 36.5815 30.5345 36.2151 30.9009Z" fill="white"/>
</g>
<defs>
<linearGradient id="paint0_linear" x1="69.7887" y1="44.794" x2="37.0433" y2="-6.34543" gradientUnits="userSpaceOnUse">
<stop stop-color="#493DE8"/>
<stop offset="1" stop-color="#10FCFD"/>
</linearGradient>
<clipPath id="clip0">
<rect width="32.0003" height="32.0003" fill="white" transform="translate(16.5 16)"/>
</clipPath>
</defs>
</svg>
