<svg width="30" height="30" viewBox="0 0 30 30" fill="none" xmlns="http://www.w3.org/2000/svg">
<path fill-rule="evenodd" clip-rule="evenodd" d="M12.7293 9.78449C12.6607 9.05169 13.1998 8.40128 13.9326 8.33269C14.6654 8.26409 15.3158 8.80315 15.3844 9.53595C15.453 10.2687 14.9139 10.9192 14.1811 10.9877C13.4483 11.0563 12.7979 10.5173 12.7293 9.78449ZM13.1021 13.7671C13.0336 13.0343 13.5726 12.3839 14.3054 12.3153C15.0382 12.2467 15.6886 12.7858 15.7572 13.5186L16.3785 20.1562C16.4471 20.889 15.9081 21.5394 15.1753 21.608C14.4425 21.6766 13.7921 21.1375 13.7235 20.4048L13.1021 13.7671ZM15.5481 25.5906C9.69237 26.1387 4.48187 21.8202 3.93372 15.9645C3.38557 10.1088 7.70408 4.89826 13.5598 4.35011C19.4155 3.80197 24.626 8.12047 25.1742 13.9762C25.7223 19.8319 21.4038 25.0424 15.5481 25.5906M13.3113 1.69518C5.97932 2.38152 0.592323 8.88122 1.27866 16.2132C1.96499 23.5451 8.4647 28.9321 15.7966 28.2458C23.1273 27.5596 28.5156 21.0597 27.8293 13.7278C27.1429 6.39585 20.6419 1.00897 13.3113 1.69518" fill="white"/>
</svg>
