<?xml version="1.0" encoding="UTF-8"?>
<svg width="20px" height="20px" viewBox="0 0 20 20" version="1.1" xmlns="http://www.w3.org/2000/svg" xmlns:xlink="http://www.w3.org/1999/xlink">
    <title>bank-card-off.1</title>
    <g id="Page-1" stroke="none" stroke-width="1" fill="none" fill-rule="evenodd">
        <g id="Desktop" transform="translate(-429.000000, -645.000000)" fill="#10FCFD">
            <g id="Group-6" transform="translate(181.000000, 537.000000)">
                <g id="bank-card-off.1" transform="translate(248.000000, 108.000000)">
                    <path d="M4.0000003,13 C4.0000003,12.4477 4.4477203,12 5.0000003,12 L9.0000003,12 C9.5523003,12 10.0000003,12.4477 10.0000003,13 C10.0000003,13.5523 9.5523003,14 9.0000003,14 L5.0000003,14 C4.4477203,14 4.0000003,13.5523 4.0000003,13 Z" id="Path" fill-rule="nonzero"></path>
                    <path d="M14.0000003,7 C13.4477003,7 13.0000003,7.44772 13.0000003,8 C13.0000003,8.5523 13.4477003,9 14.0000003,9 L20.0000003,9 L20.0000003,7 L14.0000003,7 Z" id="Path" fill-rule="nonzero"></path>
                    <polygon id="Path" fill-rule="nonzero" points="7.0000003 7.00024 9.0000003 9.0002 3.0072647e-07 9.0002 3.0072647e-07 7.00024"></polygon>
                    <path d="M14.2000003,3.9999997 C15.0566003,3.9999997 15.6389003,4.00078 16.0890003,4.03755 C16.5274003,4.07337 16.7516003,4.1383 16.9080003,4.21799 C17.2843003,4.40974 17.5903003,4.7157 17.7820003,5.09202 C17.8617003,5.24842 17.9266003,5.47262 17.9624003,5.91104 C17.9992003,6.36113 18.0000003,6.94342 18.0000003,7.8 L18.0000003,12.9999997 C18.0000003,13.5523 18.4477003,13.9999997 19.0000003,13.9999997 C19.5523003,13.9999997 20.0000003,13.5523 20.0000003,12.9999997 L20.0000003,7.75873 C20.0000003,6.95374 20.0000003,6.28938 19.9558003,5.74818 C19.9099003,5.18608 19.8113003,4.66937 19.5640003,4.18404 C19.1805003,3.43139 18.5686003,2.81947 17.8160003,2.43598 C17.3306003,2.18868 16.8139003,2.09012 16.2518003,2.04419 C15.7106003,1.9999997 15.0463003,1.9999997 14.2413003,1.9999997 L9.0000003,1.9999997 C8.4477003,1.9999997 8.0000003,2.44772 8.0000003,2.9999997 C8.0000003,3.55229 8.4477003,3.9999997 9.0000003,3.9999997 L14.2000003,3.9999997 Z" id="Path" fill-rule="nonzero"></path>
                    <path d="M2.1840403,2.43614 C2.2406903,2.40728 2.2977703,2.38044 2.3553003,2.35547 L4.0289203,4.02909 C3.9886103,4.03172 3.9493503,4.03459 3.9110403,4.03772 C3.4726203,4.07354 3.2484203,4.13847 3.0920203,4.21816 C2.7157003,4.4099 2.4097403,4.71586 2.2179903,5.09219 C2.1383003,5.24859 2.0733703,5.47279 2.0375503,5.91121 C2.0007803,6.3613 2,6.94359 2,7.80017 L2,12.2002 C2,13.0567 2.0007803,13.639 2.0375503,14.0891 C2.0733703,14.5275 2.1383003,14.7517 2.2179903,14.9081 C2.4097403,15.2845 2.7157003,15.5904 3.0920203,15.7822 C3.2484203,15.8619 3.4726203,15.9268 3.9110403,15.9626 C4.3611303,15.9994 4.9434203,16.0002 5.8000003,16.0002 L14.2000003,16.0002 C14.9837003,16.0002 15.5378003,15.9995 15.9711003,15.9712 L17.6447003,17.6449 C17.2094003,17.8338 16.7483003,17.9154 16.2518003,17.956 C15.7106003,18.0002 15.0463003,18.0002 14.2413003,18.0002 L5.7587303,18.0002 C4.9537603,18.0002 4.2893703,18.0002 3.7481803,17.956 C3.1860803,17.91 2.6693803,17.8115 2.1840403,17.5642 C1.4313903,17.1807 0.819470301,16.5688 0.435980301,15.8161 C0.188680301,15.3308 0.0901203007,14.8141 0.0442003007,14.252 C0,13.7108 0,13.0464 0,12.2415 L0,7.75886 C0,6.9539 0,6.28953 0.0442003007,5.74834 C0.0901203007,5.18624 0.188680301,4.66954 0.435980301,4.18421 C0.819470301,3.43156 1.4313903,2.81964 2.1840403,2.43614 Z" id="Path" fill-rule="nonzero"></path>
                    <path d="M0.292890301,0.29289 C0.683420301,-0.09763 1.3165803,-0.09763 1.7071103,0.29289 L19.7071003,18.2929 C20.0976003,18.6834 20.0976003,19.3166 19.7071003,19.7071 C19.3166003,20.0976 18.6834003,20.0976 18.2929003,19.7071 L0.292890301,1.70711 C-0.0976296993,1.31658 -0.0976296993,0.68342 0.292890301,0.29289 Z" id="Path"></path>
                </g>
            </g>
        </g>
    </g>
</svg>