<?xml version="1.0" encoding="UTF-8"?>
<svg width="24px" height="25px" viewBox="0 0 24 25" version="1.1" xmlns="http://www.w3.org/2000/svg" xmlns:xlink="http://www.w3.org/1999/xlink">
    <title>Group 9</title>
    <g id="Page-1" stroke="none" stroke-width="1" fill="none" fill-rule="evenodd">
        <g id="Desktop" transform="translate(-428.000000, -549.000000)" fill="#10FCFD">
            <g id="Group-6" transform="translate(181.000000, 537.000000)">
                <g id="Group-8" transform="translate(248.454300, 14.304582)">
                    <g id="Group-9" transform="translate(-0.000000, -0.000000)">
                        <g id="coupon-discount.1" transform="translate(0.545700, 2.695418)">
                            <path d="M18.5657,9.3919 C19.2012,10.1184 20,11.1983 20,12.5279 C20,14.4455 18.4455,16 16.5279,16 L3.47213,16 C1.55453,16 0,14.4455 0,12.5279 C0,11.1983 0.79877,10.1184 1.43426,9.3919 C1.75845,9.0213 2,8.5625 2,8 C2,7.4375 1.75845,6.9787 1.43426,6.6081 C0.79876,5.88156 0,4.80171 0,3.47213 C0,1.55454 1.55452,0 3.47211,0 L16.5279,0 C18.4455,0 20,1.55452 20,3.47213 C20,4.80171 19.2012,5.88156 18.5657,6.6081 C18.2416,6.9787 18,7.4375 18,8 C18,8.5625 18.2416,9.0213 18.5657,9.3919 Z M18,12.5279 C18,11.9847 17.6579,11.3918 17.0604,10.7087 C16.5236,10.095 16,9.187 16,8 C16,6.813 16.5236,5.90498 17.0604,5.29129 C17.6579,4.60822 18,4.01531 18,3.47213 C18,2.65909 17.3409,2 16.5279,2 L3.47211,2 C2.65909,2 2,2.65911 2,3.47213 C2,4.01531 2.34211,4.60822 2.93962,5.29129 C3.47642,5.90497 4,6.813 4,8 C4,9.187 3.47642,10.095 2.93962,10.7087 C2.34212,11.3918 2,11.9847 2,12.5279 C2,13.3409 2.65909,14 3.47213,14 L16.5279,14 C17.3409,14 18,13.3409 18,12.5279 Z" id="Shape"></path>
                            <path d="M8,7 C7.44772,7 7,6.5523 7,6 C7,5.44772 7.44772,5 8,5 C8.5523,5 9,5.44772 9,6 C9,6.5523 8.5523,7 8,7 Z M12.7071,6.7071 L8.7071,10.7071 C8.3166,11.0976 7.68342,11.0976 7.29289,10.7071 C6.90237,10.3166 6.90237,9.6834 7.29289,9.2929 L11.2929,5.29289 C11.6834,4.90237 12.3166,4.90237 12.7071,5.29289 C13.0976,5.68342 13.0976,6.3166 12.7071,6.7071 Z M11,10 C11,10.5523 11.4477,11 12,11 C12.5523,11 13,10.5523 13,10 C13,9.4477 12.5523,9 12,9 C11.4477,9 11,9.4477 11,10 Z" id="Shape"></path>
                        </g>
                        <rect id="Rectangle" stroke="#0F0868" transform="translate(10.253048, 10.253048) rotate(-45.000000) translate(-10.253048, -10.253048) " x="8.75304833" y="-3.74695167" width="3" height="28" rx="1"></rect>
                    </g>
                </g>
            </g>
        </g>
    </g>
</svg>