<?xml version="1.0" encoding="UTF-8"?>
<svg width="24px" height="25px" viewBox="0 0 24 25" version="1.1" xmlns="http://www.w3.org/2000/svg" xmlns:xlink="http://www.w3.org/1999/xlink">
    <title>Group 10</title>
    <g id="Page-1" stroke="none" stroke-width="1" fill="none" fill-rule="evenodd">
        <g id="Desktop" transform="translate(-194.000000, -642.000000)" fill="#10FCFD">
            <g id="Group-6" transform="translate(181.000000, 537.000000)">
                <g id="Group-10" transform="translate(14.454300, 107.000000)">
                    <path d="M12.7870005,0 L8.30440047,0 C7.49944047,0 6.83507047,0 6.29388047,0.0441903008 C5.73178047,0.0901203008 5.21507047,0.188680301 4.72974047,0.435980301 C3.97709047,0.819470301 3.36517047,1.4313903 2.98168047,2.1840403 C2.73438047,2.6693703 2.63582047,3.1860803 2.58989047,3.7481803 C2.54570016,4.2893703 2.54570016,4.9537203 2.54570016,5.7586903 L2.54570016,14.2413003 C2.54570016,15.0463003 2.54570016,15.7106003 2.58989047,16.2518003 C2.63582047,16.8139003 2.73438047,17.3306003 2.98168047,17.8160003 C3.36517047,18.5686003 3.97709047,19.1805003 4.72974047,19.5640003 C5.21507047,19.8113003 5.73178047,19.9099003 6.29388047,19.9558003 C6.83507047,20 7.49942047,20 8.30438047,20 L12.7870005,20 C13.5920005,20 14.2563005,20 14.7975005,19.9558003 C15.3596005,19.9099003 15.8763005,19.8113003 16.3617005,19.5640003 C17.1143005,19.1805003 17.7262005,18.5686003 18.1097005,17.8160003 C18.3570005,17.3306003 18.4556005,16.8139003 18.5015005,16.2518003 C18.5457002,15.7106003 18.5457002,15.0463003 18.5457002,14.2413003 L18.5457002,5.7586803 C18.5457002,4.9537303 18.5457002,4.2893603 18.5015005,3.7481803 C18.4556005,3.1860803 18.3570005,2.6693703 18.1097005,2.1840403 C17.7262005,1.4313903 17.1143005,0.819470301 16.3617005,0.435980301 C15.8763005,0.188680301 15.3596005,0.0901203008 14.7975005,0.0441903008 C14.2563005,0 13.5920005,0 12.7870005,0 Z M5.63772047,2.2179903 C5.79412047,2.1383003 6.01832047,2.0733703 6.45674047,2.0375503 C6.75033047,2.0135703 7.10017047,2.0048903 7.54570047,2.0017603 L7.54570047,3.0000003 C7.54570047,3.5522903 7.99342047,4.0000003 8.54570047,4.0000003 L12.5457005,4.0000003 C13.0980005,4.0000003 13.5457005,3.5522903 13.5457005,3.0000003 L13.5457005,2.0017603 C13.9912005,2.0048903 14.3411005,2.0135703 14.6347005,2.0375503 C15.0731005,2.0733703 15.2973005,2.1383003 15.4537005,2.2179903 C15.8300005,2.4097303 16.1360005,2.7157003 16.3277005,3.0920203 C16.4074005,3.2484203 16.4723005,3.4726203 16.5082005,3.9110403 C16.5449005,4.3611303 16.5457005,4.9434203 16.5457005,5.8000003 L16.5457005,14.2000003 C16.5457005,15.0566003 16.5449005,15.6389003 16.5082005,16.0890003 C16.4723005,16.5274003 16.4074005,16.7516003 16.3277005,16.9080003 C16.1360005,17.2843003 15.8300005,17.5903003 15.4537005,17.7820003 C15.2973005,17.8617003 15.0731005,17.9266003 14.6347005,17.9624003 C14.1846005,17.9992003 13.6023005,18.0000003 12.7457005,18.0000003 L8.34570047,18.0000003 C7.48912047,18.0000003 6.90683047,17.9992003 6.45674047,17.9624003 C6.01832047,17.9266003 5.79412047,17.8617003 5.63772047,17.7820003 C5.26140047,17.5903003 4.95543047,17.2843003 4.76369047,16.9080003 C4.68400047,16.7516003 4.61907047,16.5274003 4.58325047,16.0890003 C4.54648047,15.6389003 4.54570047,15.0566003 4.54570047,14.2000003 L4.54570047,5.8000003 C4.54570047,4.9434203 4.54648047,4.3611303 4.58325047,3.9110403 C4.61907047,3.4726203 4.68400047,3.2484203 4.76369047,3.0920203 C4.95543047,2.7157003 5.26140047,2.4097303 5.63772047,2.2179903 Z" id="Shape"></path>
                    <rect id="Rectangle" stroke="#0F0868" transform="translate(10.253048, 10.557631) rotate(-45.000000) translate(-10.253048, -10.557631) " x="8.75304833" y="-3.44236948" width="3" height="28" rx="1"></rect>
                </g>
            </g>
        </g>
    </g>
</svg>