<svg width="65" height="64" viewBox="0 0 65 64" fill="none" xmlns="http://www.w3.org/2000/svg">
<rect x="0.5" width="64.0002" height="64.0002" rx="32.0001" fill="url(#paint0_linear)"/>
<g clip-path="url(#clip0)">
<path d="M32.5614 26.2355C35.5566 26.2355 38.487 25.5807 40.8127 24.3915C40.8303 24.3827 40.8611 24.3678 40.9048 24.3473C41.418 24.1073 41.9575 23.8014 42.5088 23.4415C42.0208 19.566 40.936 17.2491 39.2082 16.3777C37.0939 15.3116 34.7653 16.7535 33.3739 17.6151C33.1066 17.7806 32.7584 17.9962 32.5614 18.0911C32.3646 17.9962 32.0163 17.7803 31.7492 17.6151C30.3578 16.7535 28.0291 15.3113 25.9149 16.3777C24.2063 17.2393 23.127 19.5147 22.6311 23.3114C23.0894 23.6476 23.5779 23.9755 23.9666 24.2099C26.3516 25.516 29.4034 26.2355 32.5614 26.2355Z" fill="white"/>
<path d="M22.3286 33.9457C25.0769 35.0389 28.7108 35.641 32.5607 35.641C36.4108 35.641 40.0447 35.0389 42.793 33.9457C45.8145 32.7435 47.4788 31.0372 47.4788 29.1414C47.4788 28.0957 46.9627 26.5547 44.5034 25.1511C44.2915 25.0303 44.0718 24.9158 43.8411 24.8059C43.1082 25.3052 42.3853 25.7251 41.6992 26.0462C41.6833 26.0537 41.6709 26.0596 41.6616 26.0637C39.0398 27.4034 35.893 28.1114 32.5607 28.1114C29.0855 28.1114 25.7071 27.3067 23.0476 25.8455C22.9922 25.815 22.2144 25.3372 21.4133 24.7437C21.1335 24.8723 20.8704 25.0071 20.6182 25.1511C18.1589 26.555 17.6428 28.0957 17.6428 29.1414C17.6428 31.0374 19.3071 32.7435 22.3286 33.9457Z" fill="white"/>
<path d="M46.541 40.0042H45.4235C44.5527 37.9119 42.487 36.437 40.0831 36.437C37.6661 36.437 35.5914 37.9278 34.7288 40.0379C33.326 39.3184 31.6424 39.3211 30.24 40.0545C29.3816 37.9356 27.3022 36.437 24.8789 36.437C22.475 36.437 20.4093 37.9119 19.5385 40.0042H18.4379C17.9198 40.0042 17.4999 40.4241 17.4999 40.9422C17.4999 41.4603 17.9198 41.8802 18.4379 41.8802H19.1073C19.1007 41.9923 19.0971 42.105 19.0971 42.2188C19.0971 45.4068 21.6908 48.0006 24.8789 48.0006C28.0671 48.0006 30.6607 45.4068 30.6607 42.2188C30.6607 42.1485 30.659 42.0787 30.6565 42.0091C31.7256 41.1724 33.232 41.1666 34.3067 41.9791C34.3033 42.0587 34.3013 42.1385 34.3013 42.2188C34.3013 45.4068 36.8949 48.0006 40.0831 48.0006C43.2712 48.0006 45.8647 45.4068 45.8647 42.2188C45.8647 42.105 45.861 41.9923 45.8547 41.8802H46.541C47.059 41.8802 47.479 41.4603 47.479 40.9422C47.479 40.4241 47.059 40.0042 46.541 40.0042Z" fill="white"/>
</g>
<defs>
<linearGradient id="paint0_linear" x1="69.7887" y1="44.794" x2="37.0433" y2="-6.34543" gradientUnits="userSpaceOnUse">
<stop stop-color="#493DE8"/>
<stop offset="1" stop-color="#10FCFD"/>
</linearGradient>
<clipPath id="clip0">
<rect width="32.0004" height="32.0004" fill="white" transform="translate(16.5 16)"/>
</clipPath>
</defs>
</svg>
