<svg width="25" height="24" viewBox="0 0 25 24" fill="none" xmlns="http://www.w3.org/2000/svg">
<g clip-path="url(#clip0)">
<path d="M8.05016 21.7497C17.1045 21.7497 22.0583 14.2465 22.0583 7.74162C22.0583 7.53068 22.0536 7.31505 22.0442 7.10412C23.0079 6.40722 23.8395 5.54401 24.5 4.55505C23.6025 4.95436 22.6496 5.21514 21.6739 5.32849C22.7013 4.71266 23.4705 3.74523 23.8391 2.60552C22.8726 3.17831 21.8156 3.58237 20.7134 3.80037C19.9708 3.01132 18.989 2.48887 17.9197 2.31381C16.8504 2.13874 15.7532 2.32081 14.7977 2.83185C13.8423 3.3429 13.0818 4.15446 12.6338 5.14107C12.1859 6.12767 12.0754 7.23437 12.3195 8.29005C10.3625 8.19185 8.44794 7.68346 6.69998 6.79785C4.95203 5.91225 3.40969 4.66919 2.17297 3.14927C1.5444 4.233 1.35206 5.5154 1.63503 6.73585C1.918 7.95629 2.65506 9.0232 3.69641 9.71974C2.91463 9.69492 2.14998 9.48444 1.46563 9.10568V9.16662C1.46492 10.3039 1.8581 11.4063 2.57831 12.2865C3.29852 13.1667 4.30132 13.7703 5.41625 13.9947C4.69206 14.1929 3.93198 14.2218 3.19484 14.0791C3.50945 15.0572 4.12157 15.9126 4.94577 16.5261C5.76997 17.1395 6.76512 17.4804 7.79234 17.501C6.04842 18.8709 3.89417 19.6139 1.67656 19.6104C1.28329 19.6098 0.890399 19.5857 0.5 19.5382C2.75286 20.9835 5.37353 21.7511 8.05016 21.7497Z" fill="white"/>
</g>
<defs>
<clipPath id="clip0">
<rect width="24" height="24" fill="white" transform="translate(0.5)"/>
</clipPath>
</defs>
</svg>
