<svg width="141" height="48" viewBox="0 0 141 48" fill="none" xmlns="http://www.w3.org/2000/svg">
<path d="M55.4978 37.5531L51.5998 24.914C51.4817 24.5006 51.5112 24.1659 51.6884 23.91C51.8853 23.6541 52.2003 23.5261 52.6334 23.5261H54.0508C54.7989 23.5261 55.2419 23.8903 55.3797 24.6187L57.8012 33.4188L58.0965 35.0135H58.1556C58.2737 34.3047 58.382 33.7732 58.4804 33.4188L61.02 24.6187C61.1578 23.91 61.6107 23.5556 62.3784 23.5556H63.5006C64.229 23.5556 64.6818 23.91 64.859 24.6187L67.3691 33.4188L67.6939 35.0135H67.753C67.8711 34.3047 67.9794 33.7732 68.0778 33.4188L70.4698 24.6187C70.647 23.8903 71.0998 23.5261 71.8282 23.5261H73.1866C73.6197 23.5261 73.9249 23.6541 74.1021 23.91C74.2989 24.1659 74.3383 24.5006 74.2202 24.914L70.3517 37.5531C70.1351 38.2421 69.6725 38.5867 68.9638 38.5867H66.9852C66.2371 38.5867 65.7745 38.2323 65.5973 37.5236L63.3234 29.9933L62.9691 28.3691H62.91C62.8509 28.7432 62.723 29.2846 62.5261 29.9933L60.2522 37.5236C60.0751 38.2323 59.6223 38.5867 58.8938 38.5867H56.8562C56.1672 38.5867 55.7144 38.2421 55.4978 37.5531ZM75.5384 31.0564C75.5384 28.7136 76.2472 26.8237 77.6646 25.3865C79.0821 23.91 80.9228 23.1717 83.1868 23.1717C85.2737 23.1717 86.9077 23.8411 88.0889 25.1798C89.2701 26.5185 89.8607 28.2411 89.8607 30.3477C89.8607 30.6823 89.7328 30.9776 89.4769 31.2336C89.2209 31.4895 88.9158 31.6175 88.5614 31.6175H79.3774C79.4955 32.8971 79.968 33.911 80.7949 34.6591C81.6414 35.3875 82.675 35.7517 83.8956 35.7517C85.0177 35.7517 86.1005 35.4269 87.1439 34.7772C87.892 34.4229 88.4433 34.5607 88.7976 35.1907L89.152 35.7813C89.5458 36.49 89.4079 37.0412 88.7386 37.435C87.1833 38.439 85.4804 38.941 83.6298 38.941C81.228 38.941 79.2691 38.1831 77.7532 36.6672C76.2767 35.1316 75.5384 33.2613 75.5384 31.0564ZM79.466 29.3436H86.1399C86.1202 28.3396 85.8249 27.5324 85.254 26.9221C84.7027 26.3118 83.9842 26.0067 83.0983 26.0067C82.1533 26.0067 81.356 26.3118 80.7063 26.9221C80.0566 27.5127 79.6432 28.3199 79.466 29.3436ZM91.4229 34.4229C91.4229 33.3991 91.6985 32.5329 92.2497 31.8242C92.8206 31.0958 93.5983 30.5544 94.5826 30.2C96.3151 29.5897 98.1952 29.2846 100.223 29.2846H100.843V28.9302C100.843 27.1584 99.908 26.2724 98.0377 26.2724C97.0337 26.2724 95.9903 26.5579 94.9075 27.1288C94.12 27.4635 93.5688 27.2962 93.2538 26.6268L92.9585 26.0657C92.5844 25.357 92.7419 24.8058 93.4309 24.412C95.0453 23.5852 96.6891 23.1717 98.3625 23.1717C100.312 23.1717 101.837 23.7033 102.94 24.7664C104.042 25.8098 104.593 27.2765 104.593 29.1664V37.3464C104.593 38.1732 104.18 38.5867 103.353 38.5867H102.349C101.542 38.5867 101.138 38.1732 101.138 37.3464V36.7558L101.197 36.1061H101.138C100.922 36.4605 100.686 36.7952 100.43 37.1101C99.3469 38.3307 98.0082 38.941 96.4135 38.941C95.0157 38.941 93.8345 38.5276 92.8699 37.7008C91.9052 36.8542 91.4229 35.7616 91.4229 34.4229ZM95.1437 34.098C95.1437 34.6493 95.3504 35.1218 95.7639 35.5155C96.1773 35.8895 96.7285 36.0766 97.4176 36.0766C98.4216 36.0766 99.2485 35.6631 99.8981 34.8363C100.548 34.0094 100.873 33.1038 100.873 32.1195V31.5584H100.252C96.8466 31.5584 95.1437 32.4049 95.1437 34.098ZM108.06 33.8913V18.8603C108.06 18.0334 108.464 17.62 109.271 17.62H110.57C111.377 17.62 111.781 18.0334 111.781 18.8603V33.596C111.781 34.7182 112.175 35.3186 112.962 35.3974C113.572 35.4564 113.878 35.8108 113.878 36.4605V37.4645C113.878 38.3111 113.464 38.7343 112.637 38.7343C111.476 38.7343 110.472 38.4784 109.625 37.9665C108.582 37.2972 108.06 35.9388 108.06 33.8913ZM117.049 33.2121V26.7154H116.252C115.444 26.7154 115.041 26.302 115.041 25.4751V24.9731C115.041 24.1462 115.454 23.7328 116.281 23.7328H117.137V20.6616C117.137 19.8348 117.551 19.4214 118.378 19.4214H119.559C120.386 19.4214 120.799 19.8348 120.799 20.6616V23.7328H122.985C123.811 23.7328 124.225 24.1462 124.225 24.9731V25.4751C124.225 26.302 123.821 26.7154 123.014 26.7154H120.799V32.5624C120.799 34.2555 121.606 35.1907 123.221 35.3678C123.674 35.4072 123.989 35.5155 124.166 35.6927C124.363 35.8699 124.461 36.1652 124.461 36.5786V37.494C124.461 38.3209 123.949 38.7343 122.925 38.7343C121.351 38.7343 119.982 38.2815 118.821 37.3759C117.64 36.4506 117.049 35.0627 117.049 33.2121ZM125.827 42.7505L126.093 42.1008C126.368 41.5102 126.811 41.2838 127.422 41.4216C127.815 41.5988 128.17 41.6874 128.485 41.6874C128.977 41.6874 129.44 41.5003 129.873 41.1263C130.306 40.7522 130.641 40.2699 130.877 39.6793L131.438 38.3504L125.709 24.9731C125.512 24.54 125.502 24.1955 125.679 23.9395C125.857 23.6639 126.181 23.5261 126.654 23.5261H128.249C128.938 23.5261 129.4 23.8608 129.637 24.5301L132.471 32.2081L133.033 34.2457H133.092C133.21 33.6748 133.377 33.0152 133.594 32.2671L136.251 24.5597C136.468 23.8706 136.931 23.5261 137.639 23.5261H139.116C139.569 23.5261 139.884 23.6541 140.061 23.91C140.258 24.1659 140.277 24.5105 140.12 24.9436L133.918 40.831C133.446 42.1106 132.727 43.0852 131.763 43.7545C130.798 44.4436 129.705 44.7881 128.485 44.7881C127.855 44.7881 127.156 44.6404 126.388 44.3451C126.034 44.2073 125.807 43.9908 125.709 43.6955C125.611 43.4001 125.65 43.0852 125.827 42.7505Z" fill="#111111"/>
<g clip-path="url(#clip0)">
<path d="M30.2407 42.4699H32.5141C34.0626 42.4699 35.5562 41.2178 35.8638 39.6693L39.3343 21.526C39.6418 19.9775 38.6424 18.7255 37.0938 18.7255H32.9753" stroke="#111111" stroke-width="2.14032" stroke-miterlimit="10"/>
<path d="M25.6937 16.2433H30.1965C31.7121 16.2433 32.9422 17.4733 32.9422 18.9889V40.1634C32.9422 41.679 31.6462 42.7883 30.1306 42.7883H14.755" stroke="#111111" stroke-width="1.49177" stroke-miterlimit="10"/>
<path d="M15.6018 13.0802L15.6018 13.0802L15.602 13.0809L18.1826 25.1715C18.2989 25.8776 17.9651 26.5716 17.4133 27.1411C16.8615 27.7104 16.0988 28.1474 15.3781 28.337C14.59 28.5421 13.6858 28.4317 12.9365 28.097C12.1865 27.762 11.602 27.2074 11.437 26.5328L8.85628 14.442C8.85627 14.442 8.85625 14.4419 8.85624 14.4419C8.70772 13.7255 9.0327 13.024 9.61122 12.4537C10.1894 11.8836 11.0143 11.4518 11.8448 11.2781C12.5416 11.1377 13.4117 11.2268 14.1435 11.5344C14.8758 11.8423 15.4585 12.3637 15.6018 13.0802Z" stroke="#111111" stroke-width="0.109826"/>
<path d="M22.5421 7.86937L22.542 7.86993C22.4897 8.48732 21.9348 8.94804 21.3173 8.88525C20.6984 8.8223 20.2384 8.27712 20.3011 7.66047L20.3011 7.66012L20.9271 1.08154L20.9271 1.08154L20.9272 1.08097C20.9795 0.46358 21.5344 0.00286138 22.1519 0.0656602L22.1528 0.0657382C22.7702 0.118059 23.2309 0.672984 23.1681 1.29043L23.1681 1.29078L22.5421 7.86937Z" fill="#111111" stroke="#111111" stroke-width="0.109826"/>
<path d="M11.8638 2.49844L11.8639 2.49844L11.8635 2.4974C11.6646 1.91101 11.9788 1.27231 12.565 1.07341C13.1514 0.874455 13.7901 1.18865 13.989 1.77488C14.1878 2.36084 13.8742 2.99905 13.2888 3.19844C13.1403 3.24072 12.9826 3.26142 12.8368 3.25101C12.3966 3.21957 11.9994 2.92599 11.8638 2.49844Z" fill="#111111" stroke="#111111" stroke-width="0.109826"/>
<path d="M11.9684 39.5999C12.0124 39.723 11.9424 39.867 11.8175 39.9132C11.7829 39.9216 11.7567 39.9219 11.7152 39.9219C11.6171 39.9121 11.5368 39.8497 11.5004 39.7597C11.4569 39.636 11.528 39.4915 11.6542 39.4464C11.7781 39.4022 11.9233 39.4734 11.9684 39.5999Z" fill="#111111" stroke="#111111" stroke-width="0.109826"/>
<path d="M25.4732 27.3602L25.4733 27.3602L25.4729 27.3581L24.254 21.2087C24.2266 21.042 24.3373 20.8826 24.5069 20.8441C24.6736 20.8171 24.833 20.9282 24.871 21.0981L26.0898 27.2468C26.1172 27.4139 26.0059 27.5737 25.8357 27.6116C25.6584 27.6488 25.5014 27.5383 25.4732 27.3602Z" fill="#111111" stroke="#111111" stroke-width="0.109826"/>
<path d="M24.4119 19.4907C24.4559 19.6137 24.3859 19.7578 24.261 19.804C24.2264 19.8123 24.2003 19.8126 24.159 19.8126C24.0698 19.8027 23.9798 19.739 23.9439 19.6504C23.9004 19.5267 23.9716 19.3823 24.0977 19.3372C24.2216 19.2929 24.3668 19.3641 24.4119 19.4907Z" fill="#111111" stroke="#111111" stroke-width="0.109826"/>
<path d="M12.7757 6.03566L12.7757 6.03566L12.7755 6.0349C12.5869 5.43785 12.9113 4.80937 13.498 4.61C14.0956 4.42161 14.7337 4.74685 14.9221 5.3319L15.5479 7.41808L15.5479 7.41808L15.5482 7.41884C15.7369 8.01646 15.4118 8.65482 14.8268 8.84338C14.6779 8.88584 14.531 8.90648 14.3854 8.89608C13.9461 8.8647 13.5483 8.57192 13.4015 8.12174L12.7757 6.03566Z" fill="#111111" stroke="#111111" stroke-width="0.109826"/>
<path d="M31.9469 2.87303L31.9469 2.87303L31.9462 2.87265C31.402 2.59009 31.1823 1.90991 31.4858 1.35526L31.4864 1.35421C31.769 0.810016 32.4495 0.59004 33.0045 0.883239L33.0048 0.88342C33.549 1.16595 33.769 1.84638 33.4759 2.40133C33.2559 2.80979 32.8265 3.02986 32.3861 2.9984L32.3858 2.99838C32.2288 2.98791 32.0827 2.94612 31.9469 2.87303Z" fill="#111111" stroke="#111111" stroke-width="0.109826"/>
<path d="M27.7297 11.2089L27.7297 11.2089L27.7286 11.2083C27.1741 10.9259 26.9531 10.2451 27.2257 9.67814L29.0485 6.08741C29.0485 6.0874 29.0485 6.08738 29.0485 6.08736C29.3313 5.53244 30.012 5.31243 30.5671 5.59523C31.1221 5.87795 31.3421 6.5587 31.0593 7.11386L31.0593 7.11393L29.2362 10.7052L29.236 10.7055C29.0268 11.124 28.587 11.3547 28.147 11.3233C28.0093 11.3127 27.8637 11.2811 27.7297 11.2089Z" fill="#111111" stroke="#111111" stroke-width="0.109826"/>
<path d="M34.9665 38.9549L35.7015 41.0606L33.9639 42.7982L31.3225 42.6704L31.7419 38.677C31.7702 38.8563 31.8142 39.0625 31.8824 39.2691C32.0712 39.8411 32.4548 40.4381 33.2277 40.4381C34.0154 40.4381 34.4624 40.0139 34.7097 39.5927C34.8329 39.3829 34.9069 39.1736 34.9502 39.017C34.9562 38.9953 34.9616 38.9745 34.9665 38.9549Z" fill="#111111" stroke="#111111" stroke-width="0.109826"/>
<mask id="path-14-inside-1" fill="white">
<path d="M7.81387 37.8131C7.94566 38.9443 8.7474 39.9877 10.3838 39.7461Z"/>
</mask>
<path d="M7.70479 37.8258C7.77302 38.4115 8.01555 38.9827 8.46193 39.3767C8.91105 39.7732 9.55442 39.9795 10.3998 39.8547L10.3678 39.6374C9.57678 39.7542 9.00108 39.5597 8.60729 39.2121C8.21075 38.862 7.98652 38.3459 7.92296 37.8004L7.70479 37.8258Z" fill="#111111" mask="url(#path-14-inside-1)"/>
<path d="M7.81387 37.8131C7.94566 38.9443 8.7474 39.9877 10.3838 39.7461" stroke="#111111" stroke-width="0.745884" stroke-miterlimit="10" stroke-linecap="round"/>
<mask id="path-17-inside-2" fill="white">
<path d="M13.9531 13.7502C12.9867 13.1462 11.6797 13.1133 10.8341 14.53Z"/>
</mask>
<path d="M14.0113 13.6571C13.5113 13.3446 12.9159 13.1752 12.33 13.274C11.7405 13.3735 11.1766 13.7419 10.7398 14.4737L10.9284 14.5863C11.3372 13.9014 11.8496 13.5779 12.3666 13.4906C12.8872 13.4028 13.4286 13.5519 13.8949 13.8434L14.0113 13.6571Z" fill="#111111" mask="url(#path-17-inside-2)"/>
<path d="M11.8336 11.2241C10.1533 11.5755 8.49493 12.9703 8.80245 14.453L11.3834 26.5448C11.7238 27.9396 13.7886 28.8072 15.392 28.3899C16.8527 28.0055 18.4781 26.6217 18.2365 25.161L15.6556 13.0691C15.3591 11.5865 13.2504 10.9385 11.8336 11.2241Z" stroke="#111111" stroke-width="1.29001" stroke-miterlimit="10"/>
<path d="M16.1061 24.8096C16.1061 25.6992 15.3812 26.4131 14.5026 26.4131C13.613 26.4131 12.8992 25.6882 12.8992 24.8096C12.8992 23.92 13.624 23.2062 14.5026 23.2062C15.3922 23.1952 16.1061 23.92 16.1061 24.8096Z" fill="#111111"/>
<path d="M13.9533 13.75C12.9868 13.146 11.6799 13.113 10.8342 14.5298" stroke="#111111" stroke-width="0.745884" stroke-miterlimit="10" stroke-linecap="round"/>
</g>
<path fill-rule="evenodd" clip-rule="evenodd" d="M3.366 14.2617H8.12589C8.13351 14.3678 8.14828 14.4752 8.1708 14.5838L8.17079 14.5838L8.17157 14.5874L8.55888 16.402H3.366C2.89172 16.402 2.57229 16.5862 2.38563 16.8197C2.19694 17.0557 2.07667 17.4275 2.17518 17.9238L2.17522 17.924L6.45839 39.4717L6.45843 39.4719C6.66986 40.5366 7.73777 41.4107 8.75846 41.4107H28.7358C29.2018 41.4107 29.5197 41.2286 29.708 40.9931C29.8983 40.7549 30.02 40.381 29.9259 39.885L29.9252 39.8816L25.6434 18.3411L25.6434 18.3409C25.432 17.2762 24.3641 16.402 23.3434 16.402H17.0265L16.5696 14.2617H23.3434C25.4197 14.2617 27.339 15.8915 27.7427 17.9238L27.7427 17.924L32.0259 39.4717L32.0274 39.479C32.2286 40.5299 31.9989 41.5551 31.3797 42.3296C30.758 43.1072 29.8074 43.551 28.7358 43.551H8.75846C6.68213 43.551 4.76282 41.9213 4.35914 39.889L4.3591 39.8888L0.075924 18.3411L0.0758849 18.3409C-0.133052 17.2887 0.0926241 16.2603 0.713877 15.4832C1.33719 14.7035 2.29173 14.2617 3.366 14.2617Z" fill="#111111"/>
<defs>
<clipPath id="clip0">
<rect width="40.4599" height="43.557" fill="white" transform="translate(0.00537109)"/>
</clipPath>
</defs>
</svg>
