<?xml version="1.0" encoding="UTF-8"?>
<svg width="139px" height="50px" viewBox="0 0 139 50" version="1.1" xmlns="http://www.w3.org/2000/svg" xmlns:xlink="http://www.w3.org/1999/xlink">
    <title>logo</title>
    <g id="Page-1" stroke="none" stroke-width="1" fill="none" fill-rule="evenodd">
        <g id="Desktop" transform="translate(-1265.000000, -2475.000000)">
            <g id="logo" transform="translate(1267.000000, 2475.000000)">
                <g id="Group" transform="translate(-0.000000, 0.000000)">
                    <path d="M29.1706274,42.4647563 L31.4440274,42.4647563 C32.9926274,42.4647563 34.4862274,41.2127563 34.7937274,39.6642563 L38.2642274,21.5209563 C38.5717274,19.9724563 37.5723274,18.7203563 36.0238274,18.7203563 L31.9053274,18.7203563" id="Path" stroke="#8F9BB3" stroke-width="2.14032"></path>
                    <path d="M24.6236274,16.2383563 L29.1265274,16.2383563 C30.6421274,16.2383563 31.8721274,17.4683563 31.8721274,18.9839563 L31.8721274,40.1584563 C31.8721274,41.6740563 30.5762274,42.7833563 29.0606274,42.7833563 L13.6849274,42.7833563" id="Path" stroke="#8F9BB3" stroke-width="1.49177"></path>
                    <path d="M27.6658274,42.4757563 L7.6884874,42.4757563 C6.1399374,42.4757563 4.6462974,41.2237563 4.3387874,39.6751563 L0.0555673956,18.1272563 C-0.251941604,16.5787563 0.747477396,15.3267563 2.2960274,15.3267563 L22.2734274,15.3267563 C23.8219274,15.3267563 25.3155274,16.5787563 25.6231274,18.1272563 L29.9063274,39.6751563 C30.2028274,41.2237563 29.2034274,42.4757563 27.6658274,42.4757563 Z" id="Path" stroke="#8F9BB3" stroke-width="2.14032"></path>
                    <path d="M10.7637274,11.2192563 C9.0833274,11.5706563 7.4249874,12.9654563 7.7325074,14.4481563 L10.3134274,26.5399563 C10.6538274,27.9347563 12.7186274,28.8023563 14.3220274,28.3850563 C15.7827274,28.0006563 17.4082274,26.6168563 17.1665274,25.1561563 L14.5856274,13.0643563 C14.2891274,11.5816563 12.1804274,10.9336563 10.7637274,11.2192563 Z" id="Path" stroke="#8F9BB3" stroke-width="1.29001"></path>
                    <path d="M15.0360274,24.8047563 C15.0360274,25.6943563 14.3111274,26.4082563 13.4325274,26.4082563 C12.5429274,26.4082563 11.8291274,25.6833563 11.8291274,24.8047563 C11.8291274,23.9151563 12.5539274,23.2012563 13.4325274,23.2012563 C14.3221274,23.1903563 15.0360274,23.9151563 15.0360274,24.8047563 Z" id="Path" fill="#8F9BB3" fill-rule="nonzero"></path>
                    <path d="M20.2417274,8.93487626 C20.8897274,9.00077626 21.4718274,8.51753626 21.5267274,7.86956626 L22.1527274,1.29098626 C22.2186274,0.643006265 21.7353274,0.0609292645 21.0874274,0.00601626453 C20.4394274,-0.0598787355 19.8573274,0.423355265 19.8024274,1.07132626 L19.1764274,7.64991626 C19.1105274,8.29788626 19.5937274,8.86898626 20.2417274,8.93487626 Z" id="Path" fill="#8F9BB3" fill-rule="nonzero"></path>
                    <path d="M11.7629274,3.30084626 C11.9166274,3.31182626 12.0814274,3.28985626 12.2351274,3.24592626 C12.8501274,3.03725626 13.1796274,2.36731626 12.9709274,1.75229626 C12.7623274,1.13726626 12.0923274,0.807786265 11.4773274,1.01645626 C10.8623274,1.22512626 10.5328274,1.89506626 10.7415274,2.51009626 C10.8842274,2.96038626 11.3016274,3.26789626 11.7629274,3.30084626 Z" id="Path" fill="#8F9BB3" fill-rule="nonzero"></path>
                    <path d="M10.6427274,39.9717563 C10.6866274,39.9717563 10.7195274,39.9717563 10.7635274,39.9607563 C10.9172274,39.9058563 11.0051274,39.7301563 10.9502274,39.5763563 C10.8953274,39.4226563 10.7195274,39.3347563 10.5658274,39.3896563 C10.4120274,39.4445563 10.3242274,39.6202563 10.3791274,39.7740563 C10.4230274,39.8838563 10.5219274,39.9607563 10.6427274,39.9717563 Z" id="Path" fill="#8F9BB3" fill-rule="nonzero"></path>
                    <path d="M24.7773274,27.6602563 C24.9750274,27.6163563 25.1068274,27.4296563 25.0738274,27.2319563 L23.8548274,21.0816563 C23.8108274,20.8839563 23.6241274,20.7521563 23.4264274,20.7851563 C23.2287274,20.8290563 23.0970274,21.0157563 23.1299274,21.2134563 L24.3490274,27.3637563 C24.3819274,27.5723563 24.5686274,27.7041563 24.7773274,27.6602563 Z" id="Path" fill="#8F9BB3" fill-rule="nonzero"></path>
                    <path d="M23.0861274,19.8626563 C23.1301274,19.8626563 23.1630274,19.8626563 23.2070274,19.8516563 C23.3607274,19.7967563 23.4486274,19.6209563 23.3937274,19.4672563 C23.3387274,19.3134563 23.1630274,19.2256563 23.0093274,19.2805563 C22.8555274,19.3354563 22.7676274,19.5111563 22.8226274,19.6649563 C22.8665274,19.7747563 22.9763274,19.8516563 23.0861274,19.8626563 Z" id="Path" fill="#8F9BB3" fill-rule="nonzero"></path>
                    <path d="M11.6531274,6.04643626 L12.2791274,8.13313626 C12.4329274,8.60538626 12.8502274,8.91289626 13.3115274,8.94584626 C13.4652274,8.95682626 13.6190274,8.93486626 13.7728274,8.89093626 C14.3878274,8.69324626 14.7282274,8.02330626 14.5306274,7.39729626 L13.9046274,5.31060626 C13.7069274,4.69557626 13.0369274,4.35511626 12.4109274,4.55280626 C11.7959274,4.76146626 11.4554274,5.42042626 11.6531274,6.04643626 Z" id="Path" fill="#8F9BB3" fill-rule="nonzero"></path>
                    <path d="M30.8508274,2.91643626 C30.9936274,2.99331626 31.1474274,3.03724626 31.3121274,3.04822626 C31.7734274,3.08117626 32.2237274,2.85053626 32.4543274,2.42221626 C32.7618274,1.84013626 32.5312274,1.12626626 31.9601274,0.829736265 C31.3780274,0.522226265 30.6641274,0.752866265 30.3676274,1.32395626 C30.0491274,1.90603626 30.2797274,2.61990626 30.8508274,2.91643626 Z" id="Path" fill="#8F9BB3" fill-rule="nonzero"></path>
                    <path d="M26.6336274,11.2521563 C26.7764274,11.3290563 26.9301274,11.3620563 27.0729274,11.3729563 C27.5342274,11.4059563 27.9954274,11.1643563 28.2151274,10.7250563 L30.0382274,7.13371626 C30.3347274,6.55163626 30.1041274,5.83776626 29.5220274,5.54123626 C28.9400274,5.24470626 28.2261274,5.47534626 27.9296274,6.05741626 L26.1064274,9.64875626 C25.8209274,10.2417563 26.0515274,10.9556563 26.6336274,11.2521563 Z" id="Path" fill="#8F9BB3" fill-rule="nonzero"></path>
                    <path d="M30.6750274,38.1156563 C30.6750274,38.1156563 30.6860274,40.3781563 32.1576274,40.3781563 C33.6842274,40.3781563 33.8819274,38.7416563 33.8819274,38.7416563 L34.6946274,41.0700563 L32.9154274,42.8491563 L30.1917274,42.7173563 L30.6750274,38.1156563 Z" id="Path" fill="#8F9BB3" fill-rule="nonzero"></path>
                    <path d="M6.7438974,37.8081563 C6.8756874,38.9393563 7.6774174,39.9827563 9.3138274,39.7411563" id="Path" stroke="#8F9BB3" stroke-width="0.745884" stroke-linecap="round"></path>
                    <path d="M12.8831274,13.7452563 C11.9166274,13.1411563 10.6097274,13.1082563 9.7640274,14.5249563" id="Path" stroke="#8F9BB3" stroke-width="0.745884" stroke-linecap="round"></path>
                </g>
                <path d="M51.4279274,42.5481563 L47.5298274,29.9090563 C47.4117274,29.4956563 47.4412274,29.1609563 47.6184274,28.9050563 C47.8153274,28.6491563 48.1303274,28.5211563 48.5634274,28.5211563 L49.9809274,28.5211563 C50.7290274,28.5211563 51.1719274,28.8853563 51.3097274,29.6137563 L53.7312274,38.4138563 L54.0265274,40.0085563 L54.0856274,40.0085563 C54.2037274,39.2997563 54.3120274,38.7682563 54.4104274,38.4138563 L56.9501274,29.6137563 C57.0879274,28.9050563 57.5407274,28.5506563 58.3085274,28.5506563 L59.4306274,28.5506563 C60.1591274,28.5506563 60.6119274,28.9050563 60.7890274,29.6137563 L63.2991274,38.4138563 L63.6240274,40.0085563 L63.6830274,40.0085563 C63.8012274,39.2997563 63.9094274,38.7682563 64.0079274,38.4138563 L66.3998274,29.6137563 C66.5770274,28.8853563 67.0298274,28.5211563 67.7582274,28.5211563 L69.1166274,28.5211563 C69.5498274,28.5211563 69.8549274,28.6491563 70.0321274,28.9050563 C70.2290274,29.1609563 70.2683274,29.4956563 70.1502274,29.9090563 L66.2817274,42.5481563 C66.0652274,43.2371563 65.6025274,43.5817563 64.8938274,43.5817563 L62.9152274,43.5817563 C62.1671274,43.5817563 61.7045274,43.2273563 61.5273274,42.5186563 L59.2535274,34.9883563 L58.8991274,33.3641563 L58.8400274,33.3641563 C58.7810274,33.7382563 58.6530274,34.2796563 58.4561274,34.9883563 L56.1823274,42.5186563 C56.0051274,43.2273563 55.5523274,43.5817563 54.8239274,43.5817563 L52.7863274,43.5817563 C52.0972274,43.5817563 51.6444274,43.2371563 51.4279274,42.5481563 Z M71.4685274,36.0514563 C71.4685274,33.7086563 72.1772274,31.8187563 73.5947274,30.3815563 C75.0121274,28.9050563 76.8529274,28.1667563 79.1169274,28.1667563 C81.2037274,28.1667563 82.8377274,28.8361563 84.0189274,30.1748563 C85.2002274,31.5135563 85.7908274,33.2361563 85.7908274,35.3427563 C85.7908274,35.6773563 85.6628274,35.9726563 85.4069274,36.2286563 C85.1509274,36.4845563 84.8458274,36.6125563 84.4914274,36.6125563 L75.3074274,36.6125563 C75.4256274,37.8921563 75.8981274,38.9060563 76.7249274,39.6541563 C77.5714274,40.3825563 78.6050274,40.7467563 79.8256274,40.7467563 C80.9478274,40.7467563 82.0306274,40.4219563 83.0740274,39.7722563 C83.8221274,39.4179563 84.3733274,39.5557563 84.7277274,40.1857563 L85.0820274,40.7763563 C85.4758274,41.4850563 85.3380274,42.0362563 84.6686274,42.4300563 C83.1133274,43.4340563 81.4104274,43.9360563 79.5598274,43.9360563 C77.1580274,43.9360563 75.1992274,43.1781563 73.6833274,41.6622563 C72.2067274,40.1266563 71.4685274,38.2563563 71.4685274,36.0514563 Z M75.3960274,34.3386563 L82.0699274,34.3386563 C82.0502274,33.3346563 81.7549274,32.5274563 81.1840274,31.9171563 C80.6328274,31.3068563 79.9142274,31.0017563 79.0283274,31.0017563 C78.0833274,31.0017563 77.2860274,31.3068563 76.6363274,31.9171563 C75.9866274,32.5077563 75.5732274,33.3149563 75.3960274,34.3386563 Z M87.3529274,39.4179563 C87.3529274,38.3941563 87.6285274,37.5279563 88.1798274,36.8192563 C88.7507274,36.0908563 89.5283274,35.5494563 90.5127274,35.1950563 C92.2451274,34.5847563 94.1252274,34.2796563 96.1530274,34.2796563 L96.7731274,34.2796563 L96.7731274,33.9252563 C96.7731274,32.1534563 95.8380274,31.2674563 93.9677274,31.2674563 C92.9637274,31.2674563 91.9203274,31.5529563 90.8375274,32.1238563 C90.0500274,32.4585563 89.4988274,32.2912563 89.1838274,31.6218563 L88.8885274,31.0607563 C88.5144274,30.3520563 88.6719274,29.8008563 89.3610274,29.4070563 C90.9753274,28.5802563 92.6192274,28.1667563 94.2926274,28.1667563 C96.2416274,28.1667563 97.7673274,28.6983563 98.8698274,29.7614563 C99.9724274,30.8048563 100.523427,32.2715563 100.523427,34.1614563 L100.523427,42.3414563 C100.523427,43.1682563 100.110427,43.5817563 99.2834274,43.5817563 L98.2792274,43.5817563 C97.4720274,43.5817563 97.0684274,43.1682563 97.0684274,42.3414563 L97.0684274,41.7508563 L97.1275274,41.1011563 L97.0684274,41.1011563 C96.8519274,41.4555563 96.6156274,41.7902563 96.3597274,42.1051563 C95.2769274,43.3257563 93.9382274,43.9360563 92.3436274,43.9360563 C90.9458274,43.9360563 89.7646274,43.5226563 88.7999274,42.6958563 C87.8352274,41.8492563 87.3529274,40.7566563 87.3529274,39.4179563 Z M91.0737274,39.0930563 C91.0737274,39.6443563 91.2805274,40.1168563 91.6939274,40.5105563 C92.1073274,40.8845563 92.6585274,41.0716563 93.3476274,41.0716563 C94.3516274,41.0716563 95.1785274,40.6581563 95.8282274,39.8313563 C96.4778274,39.0044563 96.8027274,38.0988563 96.8027274,37.1145563 L96.8027274,36.5534563 L96.1825274,36.5534563 C92.7767274,36.5534563 91.0737274,37.3999563 91.0737274,39.0930563 Z M103.990427,38.8863563 L103.990427,23.8553563 C103.990427,23.0284563 104.393427,22.6150563 105.200427,22.6150563 L106.500427,22.6150563 C107.307427,22.6150563 107.711427,23.0284563 107.711427,23.8553563 L107.711427,38.5910563 C107.711427,39.7132563 108.104427,40.3136563 108.892427,40.3924563 C109.502427,40.4514563 109.807427,40.8058563 109.807427,41.4555563 L109.807427,42.4595563 C109.807427,43.3061563 109.394427,43.7293563 108.567427,43.7293563 C107.405427,43.7293563 106.401427,43.4734563 105.555427,42.9615563 C104.511427,42.2922563 103.990427,40.9338563 103.990427,38.8863563 Z M112.979427,38.2071563 L112.979427,31.7104563 L112.181427,31.7104563 C111.374427,31.7104563 110.970427,31.2970563 110.970427,30.4701563 L110.970427,29.9681563 C110.970427,29.1412563 111.384427,28.7278563 112.211427,28.7278563 L113.067427,28.7278563 L113.067427,25.6566563 C113.067427,24.8298563 113.481427,24.4164563 114.307427,24.4164563 L115.489427,24.4164563 C116.315427,24.4164563 116.729427,24.8298563 116.729427,25.6566563 L116.729427,28.7278563 L118.914427,28.7278563 C119.741427,28.7278563 120.154427,29.1412563 120.154427,29.9681563 L120.154427,30.4701563 C120.154427,31.2970563 119.751427,31.7104563 118.944427,31.7104563 L116.729427,31.7104563 L116.729427,37.5574563 C116.729427,39.2505563 117.536427,40.1857563 119.150427,40.3628563 C119.603427,40.4022563 119.918427,40.5105563 120.095427,40.6877563 C120.292427,40.8649563 120.391427,41.1602563 120.391427,41.5736563 L120.391427,42.4890563 C120.391427,43.3159563 119.879427,43.7293563 118.855427,43.7293563 C117.280427,43.7293563 115.912427,43.2765563 114.750427,42.3709563 C113.569427,41.4456563 112.979427,40.0577563 112.979427,38.2071563 Z M121.757427,47.7455563 L122.022427,47.0958563 C122.298427,46.5052563 122.741427,46.2788563 123.351427,46.4166563 C123.745427,46.5938563 124.099427,46.6824563 124.414427,46.6824563 C124.907427,46.6824563 125.369427,46.4953563 125.802427,46.1213563 C126.236427,45.7472563 126.570427,45.2649563 126.806427,44.6743563 L127.368427,43.3454563 L121.639427,29.9681563 C121.442427,29.5350563 121.432427,29.1905563 121.609427,28.9345563 C121.786427,28.6589563 122.111427,28.5211563 122.584427,28.5211563 L124.178427,28.5211563 C124.867427,28.5211563 125.330427,28.8558563 125.566427,29.5251563 L128.401427,37.2031563 L128.962427,39.2407563 L129.021427,39.2407563 C129.139427,38.6698563 129.307427,38.0102563 129.523427,37.2621563 L132.181427,29.5547563 C132.398427,28.8656563 132.860427,28.5211563 133.569427,28.5211563 L135.045427,28.5211563 C135.498427,28.5211563 135.813427,28.6491563 135.990427,28.9050563 C136.187427,29.1609563 136.207427,29.5055563 136.049427,29.9386563 L129.848427,45.8260563 C129.376427,47.1056563 128.657427,48.0802563 127.692427,48.7495563 C126.728427,49.4386563 125.635427,49.7831563 124.414427,49.7831563 C123.784427,49.7831563 123.086427,49.6354563 122.318427,49.3401563 C121.963427,49.2023563 121.737427,48.9858563 121.639427,48.6905563 C121.540427,48.3951563 121.580427,48.0802563 121.757427,47.7455563 Z" id="Shape" fill="#8F9BB3" fill-rule="nonzero"></path>
            </g>
        </g>
    </g>
</svg>